<svg xmlns="http://www.w3.org/2000/svg" width="46" height="32" fill="none" viewBox="0 0 46 32">
  <g clip-path="url(#a)">
    <path fill="#016FD0" fill-rule="evenodd" d="M0 0h46v32H0V0Z" clip-rule="evenodd"/>
    <path fill="#fff" fill-rule="evenodd" d="M8.936 24.202v-7.138h7.612l.817 1.057.844-1.057H45.84v6.646s-.723.485-1.558.492h-15.3l-.921-1.125v1.125h-3.018v-1.92s-.412.267-1.303.267h-1.027v1.653h-4.569l-.816-1.08-.828 1.08H8.936ZM.046 11.684 1.763 7.71H4.73l.975 2.226V7.71h3.69l.58 1.61.562-1.61h16.567v.81s.87-.81 2.302-.81l5.375.02.957 2.196V7.71h3.089l.85 1.262V7.71h3.116v7.139h-3.116l-.815-1.266v1.266h-4.538l-.456-1.126h-1.22L32.2 14.85h-3.077c-1.231 0-2.018-.793-2.018-.793v.793h-4.64l-.921-1.126v1.126H4.292l-.456-1.126H2.62l-.453 1.126H.046v-3.165Z" clip-rule="evenodd"/>
    <path fill="#016FD0" d="M2.37 8.59.055 13.935h1.507l.427-1.07h2.484l.425 1.07h1.54L4.126 8.59H2.37Zm.857 1.244.757 1.87H2.467l.76-1.87Z"/>
    <path fill="#016FD0" fill-rule="evenodd" d="M6.598 13.934V8.59l2.142.008 1.246 3.446 1.216-3.454h2.125v5.345h-1.345V9.996l-1.427 3.938h-1.18L7.944 9.996v3.938H6.598ZM14.248 13.934V8.59h4.392v1.196h-3.032v.914h2.96v1.125h-2.96v.95h3.032v1.16h-4.392Z" clip-rule="evenodd"/>
    <path fill="#016FD0" d="M19.419 8.59v5.345h1.346v-1.899h.566l1.614 1.9h1.645l-1.771-1.97a1.632 1.632 0 0 0 1.476-1.642c0-1.124-.889-1.734-1.881-1.734h-2.995Zm1.346 1.196h1.538c.37 0 .638.287.638.563 0 .355-.348.562-.618.562h-1.558V9.786Z"/>
    <path fill="#016FD0" fill-rule="evenodd" d="M26.219 13.934h-1.374V8.59h1.374v5.345ZM29.478 13.934h-.297c-1.435 0-2.306-1.122-2.306-2.65 0-1.566.861-2.695 2.674-2.695h1.487v1.266h-1.542c-.736 0-1.256.57-1.256 1.442 0 1.035.595 1.47 1.452 1.47h.354l-.566 1.167Z" clip-rule="evenodd"/>
    <path fill="#016FD0" d="m32.406 8.59-2.315 5.345h1.507l.428-1.07h2.483l.425 1.07h1.54L34.163 8.59h-1.756Zm.857 1.244.757 1.87h-1.516l.759-1.87Z"/>
    <path fill="#016FD0" fill-rule="evenodd" d="M36.632 13.934V8.59h1.71l2.186 3.358V8.59h1.346v5.345h-1.656l-2.24-3.446v3.446h-1.346ZM9.856 23.288v-5.345h4.392v1.195h-3.031v.915h2.96v1.125h-2.96v.95h3.031v1.16H9.856ZM31.376 23.288v-5.345h4.392v1.195h-3.032v.915h2.947v1.125h-2.947v.95h3.032v1.16h-4.392ZM14.419 23.288l2.138-2.64-2.19-2.705h1.696l1.304 1.672 1.308-1.672h1.63l-2.161 2.672 2.142 2.673h-1.695l-1.266-1.646-1.235 1.646h-1.671Z" clip-rule="evenodd"/>
    <path fill="#016FD0" d="M20.446 17.944v5.345h1.382V21.6h1.416c1.199 0 2.108-.632 2.108-1.86 0-1.017-.713-1.797-1.933-1.797h-2.973Zm1.382 1.209h1.492c.387 0 .664.235.664.615 0 .357-.276.615-.669.615h-1.487v-1.23ZM25.936 17.943v5.345h1.345v-1.9h.567l1.614 1.9h1.644l-1.77-1.97a1.632 1.632 0 0 0 1.476-1.641c0-1.125-.89-1.734-1.882-1.734h-2.994Zm1.345 1.195h1.539c.369 0 .637.287.637.563 0 .355-.348.563-.617.563H27.28v-1.126Z"/>
    <path fill="#016FD0" fill-rule="evenodd" d="M36.39 23.288v-1.16h2.694c.399 0 .571-.215.571-.449 0-.225-.172-.452-.57-.452h-1.218c-1.058 0-1.647-.64-1.647-1.6 0-.858.54-1.684 2.111-1.684h2.621l-.566 1.202h-2.267c-.433 0-.567.226-.567.442 0 .221.165.466.496.466h1.275c1.18 0 1.691.664 1.691 1.534 0 .935-.57 1.7-1.755 1.7H36.39ZM41.33 23.288v-1.16h2.694c.399 0 .571-.215.571-.449 0-.225-.172-.452-.571-.452h-1.217c-1.058 0-1.647-.64-1.647-1.6 0-.858.54-1.684 2.111-1.684h2.621l-.566 1.202h-2.267c-.433 0-.567.226-.567.442 0 .221.165.466.496.466h1.275c1.18 0 1.691.664 1.691 1.534 0 .935-.57 1.7-1.755 1.7H41.33Z" clip-rule="evenodd"/>
  </g>
  <defs>
    <clipPath id="a">
      <path fill="#fff" d="M0 0h46v32H0z"/>
    </clipPath>
  </defs>
</svg>