<svg width="16" height="16" viewBox="0 0 16 16" fill="none" xmlns="http://www.w3.org/2000/svg">
<path fill-rule="evenodd" clip-rule="evenodd" d="M0 1.75C0 0.783501 0.783502 0 1.75 0H14.25C15.2165 0 16 0.783502 16 1.75V14.25C16 15.2165 15.2165 16 14.25 16H1.75C0.783501 16 0 15.2165 0 14.25V1.75ZM1.75 1.5C1.61193 1.5 1.5 1.61193 1.5 1.75V14.25C1.5 14.3881 1.61193 14.5 1.75 14.5H14.25C14.3881 14.5 14.5 14.3881 14.5 14.25V1.75C14.5 1.61193 14.3881 1.5 14.25 1.5H1.75ZM12.9799 5.50717L10.1464 9.89036C9.64411 10.6673 8.6239 10.9191 7.81784 10.4651L5.78228 9.31847C5.66513 9.25248 5.51678 9.29096 5.44648 9.40557L4.28932 11.2921L3.01068 10.5079L4.16784 8.6213C4.65993 7.81902 5.69842 7.54964 6.51845 8.01154L8.55401 9.15813C8.66916 9.223 8.8149 9.18703 8.88665 9.07603L11.7201 4.69283L12.9799 5.50717Z" fill="currentColor"/>
</svg>
