<svg width="16" height="16" viewBox="0 0 16 16" fill="none" xmlns="http://www.w3.org/2000/svg">
<path fill-rule="evenodd" clip-rule="evenodd" d="M0 1.75C0 0.783501 0.783502 0 1.75 0H14.25C15.2165 0 16 0.783502 16 1.75V14.25C16 15.2165 15.2165 16 14.25 16H1.75C0.783501 16 0 15.2165 0 14.25V1.75ZM10.1464 9.8904L12.9799 5.5072L11.7201 4.69287L8.88665 9.07607C8.8149 9.18706 8.66916 9.22303 8.55401 9.15817L6.51845 8.01158C5.69842 7.54967 4.65993 7.81906 4.16784 8.62133L3.01068 10.5079L4.28932 11.2922L5.44648 9.40561C5.51678 9.291 5.66513 9.25252 5.78228 9.3185L7.81784 10.4651C8.6239 10.9191 9.64411 10.6673 10.1464 9.8904Z" fill="currentColor"/>
</svg>
