<svg width="16" height="16" viewBox="0 0 16 16" fill="none" xmlns="http://www.w3.org/2000/svg">
<path fill-rule="evenodd" clip-rule="evenodd" d="M3.9468 1.17023C4.2638 0.899033 4.66726 0.75 5.08444 0.75H11.0837C11.5187 0.75 11.938 0.911979 12.2601 1.20436L15.3811 4.03804C15.9876 4.58877 16.1309 5.48661 15.7259 6.19879L15.1193 7.2654C14.6064 8.16745 13.42 8.41787 12.5862 7.80012C12.4347 7.68786 12.22 7.79603 12.22 7.98461V13.5C12.22 14.4665 11.4364 15.25 10.47 15.25H5.71505C4.74855 15.25 3.96505 14.4665 3.96505 13.5V8.02511C3.96505 7.82723 3.73293 7.70072 3.56194 7.8274C2.75715 8.42365 1.6105 8.22677 1.05643 7.38559L0.328779 6.28087C-0.156375 5.54432 -0.0175912 4.56183 0.652596 3.98848L3.9468 1.17023ZM5.95818 2.25C6.05155 2.45159 6.17906 2.66749 6.34605 2.87435C6.75102 3.37599 7.32686 3.75 8.09998 3.75C8.77499 3.75 9.35741 3.38821 9.79932 2.86274C9.97278 2.65648 10.1076 2.44535 10.2084 2.25H5.95818ZM11.6614 2.68682C11.4871 3.08157 11.2418 3.47805 10.9473 3.82818C10.3215 4.57241 9.35387 5.25 8.09998 5.25C6.7731 5.25 5.79894 4.58462 5.17891 3.81657C4.88917 3.45767 4.66204 3.05854 4.5049 2.6668L1.62771 5.12828C1.53197 5.21019 1.51215 5.35054 1.58145 5.45576L2.30911 6.56048C2.38648 6.67795 2.55142 6.70925 2.66899 6.62215C3.81791 5.77094 5.46505 6.58029 5.46505 8.02511V13.5C5.46505 13.6381 5.57698 13.75 5.71505 13.75H10.47C10.608 13.75 10.72 13.6381 10.72 13.5V7.98461C10.72 6.56401 12.3377 5.74918 13.4792 6.59486C13.5899 6.67687 13.7474 6.64363 13.8155 6.52388L14.422 5.45726C14.4799 5.35552 14.4594 5.22726 14.3728 5.14859L11.6614 2.68682Z" fill="currentColor"/>
</svg>
