<svg width="16" height="16" viewBox="0 0 16 16" fill="none" xmlns="http://www.w3.org/2000/svg">
<path fill-rule="evenodd" clip-rule="evenodd" d="M5.0845 0.75C4.66732 0.75 4.26386 0.899033 3.94686 1.17023L0.652656 3.98848C-0.0175303 4.56183 -0.156314 5.54432 0.32884 6.28087L1.05649 7.38559C1.61056 8.22677 2.75721 8.42365 3.562 7.8274C3.73299 7.70072 3.96511 7.82723 3.96511 8.02511V13.5C3.96511 14.4665 4.74861 15.25 5.71511 15.25H10.47C11.4365 15.25 12.22 14.4665 12.22 13.5V7.98461C12.22 7.79602 12.4348 7.68786 12.5863 7.80012C13.4201 8.41787 14.6064 8.16745 15.1194 7.2654L15.726 6.19879C16.131 5.48661 15.9877 4.58877 15.3811 4.03804L12.2601 1.20436C11.9381 0.911979 11.5187 0.75 11.0838 0.75H5.0845ZM5.95822 2.25C6.0516 2.45159 6.1791 2.66749 6.3461 2.87435C6.75106 3.37599 7.3269 3.75 8.10003 3.75C8.77504 3.75 9.35746 3.38821 9.79936 2.86274C9.97282 2.65648 10.1077 2.44535 10.2085 2.25H5.95822Z" fill="currentColor"/>
</svg>
