<svg width="163" height="48" fill="none" xmlns="http://www.w3.org/2000/svg"><path d="M156.597 48h-150c-3.3 0-6-2.7-6-6V6c0-3.3 2.7-6 6-6h150c3.3 0 6 2.7 6 6v36c0 3.3-2.7 6-6 6Z" fill="#000"/><path d="M156.597 0h-150c-3.3 0-6 2.7-6 6v36c0 3.3 2.7 6 6 6h150c3.3 0 6-2.7 6-6V6c0-3.3-2.7-6-6-6Zm0 .96a5.046 5.046 0 0 1 5.04 5.04v36c0 2.78-2.261 5.04-5.04 5.04h-150A5.046 5.046 0 0 1 1.557 42V6A5.046 5.046 0 0 1 6.597.96h150Z" fill="#A6A6A6"/><path d="M57.499 12.292c0 1.005-.298 1.806-.894 2.403-.677.71-1.56 1.066-2.645 1.066-1.04 0-1.923-.36-2.65-1.081-.727-.72-1.09-1.614-1.09-2.68s.363-1.96 1.09-2.68c.727-.72 1.61-1.081 2.65-1.081.515 0 1.01.1 1.478.302.468.201.844.469 1.126.804l-.633.633c-.477-.57-1.133-.854-1.971-.854-.758 0-1.413.266-1.967.8-.553.533-.83 1.225-.83 2.076s.277 1.543.83 2.077c.553.533 1.209.799 1.967.799.804 0 1.474-.268 2.01-.804.35-.35.55-.835.605-1.458H53.96v-.865h3.489c.034.188.05.368.05.543Z" fill="#fff"/><path d="M57.499 12.292h-.12c-.001.982-.288 1.746-.859 2.319h-.001v.001c-.657.686-1.5 1.027-2.56 1.029-1.01-.002-1.857-.347-2.564-1.046-.706-.7-1.054-1.556-1.056-2.595.002-1.04.35-1.894 1.056-2.595.707-.7 1.553-1.045 2.565-1.046.5 0 .976.097 1.43.292.455.196.814.453 1.082.771l.092-.077-.085-.085-.633.634.085.084.092-.077c-.498-.597-1.199-.899-2.063-.897a2.858 2.858 0 0 0-2.05.833c-.577.555-.867 1.286-.866 2.163-.001.877.289 1.608.866 2.163a2.858 2.858 0 0 0 2.05.833c.83.001 1.538-.28 2.096-.84.372-.372.583-.89.638-1.532l.011-.13H54.08v-.625h3.369v-.12l-.118.02c.032.183.048.356.048.523h.24c0-.182-.017-.37-.052-.565l-.018-.098h-3.71v1.105h2.736v-.12l-.12-.01c-.053.603-.245 1.058-.57 1.383-.515.514-1.148.767-1.925.769a2.614 2.614 0 0 1-1.883-.766c-.529-.511-.792-1.164-.793-1.99.001-.826.264-1.479.793-1.99a2.614 2.614 0 0 1 1.883-.766c.811.002 1.424.27 1.88.812l.083.1.726-.726.077-.078-.07-.084c-.295-.351-.688-.63-1.17-.838a3.833 3.833 0 0 0-1.526-.311c-1.067-.001-1.988.374-2.734 1.116-.75.74-1.128 1.671-1.127 2.765 0 1.093.377 2.024 1.127 2.766.746.741 1.667 1.116 2.734 1.115 1.11 0 2.032-.368 2.732-1.103l-.087-.083.085.085c.621-.621.93-1.46.929-2.488h-.12ZM63.03 9.285h-3.279v2.282h2.957v.866h-2.957v2.283h3.28v.884h-4.204V8.4h4.203v.885Z" fill="#fff"/><path d="M63.03 9.285v-.12h-3.399v2.522h2.957v.625h-2.957v2.524h3.28v.644h-3.964V8.52h3.963v.765h.12v-.12.12h.12V8.28h-4.443v7.44h4.443v-1.125h-3.279v-2.042h2.957V11.447h-2.957V9.405h3.28v-.12h-.12ZM66.931 15.6h-.925V9.285h-2.011V8.4h4.947v.885h-2.01V15.6Z" fill="#fff"/><path d="M66.931 15.6v-.12h-.805V9.165h-2.011V8.52h4.708v.645h-2.011V15.6h.12v-.12.12h.12V9.405h2.01V8.28h-5.187v1.125h2.01v6.315h1.166v-.12h-.12ZM72.522 15.6V8.4h.925v7.2h-.925Z" fill="#fff"/><path d="M72.522 15.6h.12V8.52h.685v6.96h-.805v.12h.12-.12v.12h1.045V8.28h-1.165v7.44h.12v-.12ZM77.551 15.6h-.926V9.285h-2.01V8.4h4.947v.885h-2.011V15.6Z" fill="#fff"/><path d="M77.551 15.6v-.12h-.806V9.165h-2.01V8.52h4.707v.645h-2.01V15.6h.12v-.12.12h.12V9.405h2.01V8.28h-5.188v1.125h2.011v6.315h1.166v-.12h-.12ZM84.332 14.067c.533.54 1.185.809 1.956.809.771 0 1.424-.27 1.956-.81.533-.539.8-1.228.8-2.066 0-.838-.267-1.527-.8-2.067-.532-.54-1.185-.809-1.956-.809-.771 0-1.423.27-1.956.81-.532.539-.8 1.228-.8 2.066 0 .838.268 1.527.8 2.067Zm4.596.602c-.708.728-1.588 1.092-2.64 1.092-1.053 0-1.933-.364-2.639-1.091-.708-.728-1.06-1.618-1.06-2.67 0-1.052.352-1.943 1.06-2.67.706-.728 1.586-1.091 2.64-1.091 1.045 0 1.923.365 2.634 1.096.71.731 1.066 1.62 1.066 2.665 0 1.052-.355 1.942-1.06 2.67Z" fill="#fff"/><path d="m84.332 14.067-.085.084a2.765 2.765 0 0 0 2.041.845 2.763 2.763 0 0 0 2.041-.845c.556-.562.836-1.288.835-2.151.001-.863-.279-1.59-.835-2.151a2.763 2.763 0 0 0-2.04-.845 2.765 2.765 0 0 0-2.042.845c-.555.562-.836 1.288-.834 2.151-.002.863.279 1.59.834 2.151l.085-.084.085-.085c-.509-.518-.763-1.17-.764-1.982 0-.813.255-1.464.764-1.982.514-.518 1.128-.772 1.871-.774.743.002 1.358.256 1.87.774.51.518.765 1.17.766 1.982-.001.813-.256 1.464-.766 1.982-.512.518-1.127.772-1.87.774-.743-.002-1.357-.256-1.87-.774l-.086.085Zm4.596.602-.086-.083c-.688.705-1.53 1.053-2.554 1.055-1.025-.002-1.867-.35-2.553-1.055l-.004-.004.004.004c-.687-.707-1.026-1.56-1.027-2.586.001-1.026.34-1.879 1.027-2.586.686-.705 1.528-1.054 2.553-1.055 1.018.001 1.858.351 2.55 1.06.689.71 1.03 1.562 1.03 2.581 0 1.026-.34 1.879-1.026 2.586l.086.083.086.084c.728-.747 1.096-1.674 1.095-2.753 0-1.073-.369-1.998-1.1-2.748-.73-.754-1.647-1.135-2.72-1.133-1.08-.002-2 .378-2.726 1.128-.73.747-1.096 1.674-1.095 2.753 0 1.079.366 2.006 1.095 2.753l.003.004-.003-.004c.726.75 1.645 1.129 2.725 1.128 1.08 0 1.998-.378 2.726-1.128l-.086-.084ZM91.287 15.6V8.4h1.126l3.5 5.601h.04l-.04-1.387V8.4h.925v7.2h-.965l-3.661-5.873h-.04l.04 1.389V15.6h-.925Z" fill="#fff"/><path d="M91.287 15.6h.12V8.52h.94l3.499 5.601H96.076l-.043-1.51V8.52h.685v6.96h-.779l-3.66-5.873H92.048l.043 1.51v4.363h-.805v.12h.12-.12v.12h1.045v-4.606l-.04-1.39-.12.003v.12h.04v-.12l-.102.064 3.696 5.929H96.958V8.28h-1.166v4.335l.04 1.39.12-.004v-.12h-.04v.12l.102-.064L92.48 8.28H91.167v7.44h.12v-.12ZM128.92 36h2.239V20.999h-2.239V36Zm20.168-9.598-2.566 6.504h-.077l-2.664-6.504h-2.412l3.995 9.09-2.278 5.057h2.336l6.156-14.147h-2.49Zm-12.698 7.894c-.734 0-1.757-.367-1.757-1.274 0-1.158 1.275-1.602 2.374-1.602.985 0 1.447.213 2.046.502a2.715 2.715 0 0 1-2.663 2.374Zm.27-8.222c-1.621 0-3.3.715-3.995 2.297l1.987.83c.425-.83 1.216-1.1 2.046-1.1 1.158 0 2.336.695 2.355 1.93v.154c-.406-.231-1.273-.579-2.335-.579-2.142 0-4.324 1.177-4.324 3.378 0 2.007 1.757 3.3 3.725 3.3 1.506 0 2.335-.675 2.857-1.467h.077v1.158h2.161v-5.751c0-2.663-1.987-4.15-4.554-4.15Zm-13.838 2.155h-3.185v-5.143h3.185c1.674 0 2.624 1.386 2.624 2.571 0 1.163-.95 2.572-2.624 2.572Zm-.058-7.23h-5.365V36h2.238v-5.684h3.127c2.482 0 4.921-1.796 4.921-4.659 0-2.862-2.439-4.658-4.921-4.658Zm-29.257 13.3c-1.547 0-2.842-1.295-2.842-3.074 0-1.798 1.295-3.113 2.842-3.113 1.527 0 2.726 1.315 2.726 3.113 0 1.779-1.199 3.074-2.726 3.074Zm2.571-7.057h-.077c-.503-.599-1.47-1.14-2.688-1.14-2.552 0-4.89 2.242-4.89 5.123 0 2.861 2.338 5.084 4.89 5.084 1.218 0 2.185-.541 2.688-1.16h.077v.735c0 1.953-1.044 2.997-2.726 2.997-1.372 0-2.223-.986-2.571-1.817l-1.953.812c.56 1.353 2.05 3.015 4.524 3.015 2.63 0 4.853-1.547 4.853-5.316V26.41h-2.127v.831ZM99.751 36h2.243V20.998h-2.243V36Zm5.549-4.949c-.058-1.972 1.527-2.977 2.667-2.977.89 0 1.644.444 1.895 1.083L105.3 31.05Zm6.959-1.701c-.425-1.141-1.721-3.248-4.369-3.248-2.629 0-4.814 2.069-4.814 5.104 0 2.86 2.166 5.103 5.065 5.103 2.34 0 3.693-1.43 4.254-2.261l-1.74-1.16c-.58.85-1.373 1.41-2.514 1.41-1.14 0-1.952-.521-2.474-1.546l6.824-2.822-.232-.58Zm-54.37-1.682v2.165h5.181c-.154 1.218-.56 2.107-1.179 2.726-.754.754-1.933 1.585-4.002 1.585-3.19 0-5.683-2.57-5.683-5.76s2.493-5.762 5.683-5.762c1.721 0 2.977.677 3.905 1.547l1.528-1.527c-1.296-1.238-3.016-2.185-5.433-2.185-4.369 0-8.042 3.557-8.042 7.926 0 4.37 3.673 7.926 8.042 7.926 2.36 0 4.137-.773 5.53-2.223 1.43-1.43 1.875-3.441 1.875-5.065 0-.503-.039-.966-.117-1.353H57.89Zm13.295 6.63c-1.547 0-2.88-1.275-2.88-3.092 0-1.837 1.333-3.094 2.88-3.094 1.546 0 2.88 1.257 2.88 3.094 0 1.817-1.334 3.093-2.88 3.093Zm0-8.196c-2.823 0-5.123 2.146-5.123 5.104 0 2.938 2.3 5.103 5.123 5.103 2.822 0 5.123-2.165 5.123-5.103 0-2.958-2.3-5.104-5.123-5.104Zm11.176 8.197c-1.546 0-2.88-1.276-2.88-3.093 0-1.837 1.334-3.094 2.88-3.094 1.546 0 2.88 1.257 2.88 3.094 0 1.817-1.334 3.093-2.88 3.093Zm0-8.197c-2.823 0-5.123 2.146-5.123 5.104 0 2.938 2.3 5.103 5.123 5.103 2.822 0 5.123-2.165 5.123-5.103 0-2.958-2.3-5.104-5.123-5.104Z" fill="#fff"/><path d="m13.209 38.867-.09-.085c-.349-.37-.555-.943-.555-1.686v.175V10.726v.181c0-.804.24-1.41.643-1.773L28.075 24 13.209 38.867Zm-.645-28.143Zm.005-.196v-.003.003Zm0-.009v-.001.001Z" fill="url(#a)"/><path d="m33.03 29.134.113-.064 5.872-3.336c.56-.318.932-.704 1.119-1.112-.186.408-.56.794-1.12 1.112l-5.87 3.336-.114.064Zm.002-.176-4.957-4.957 4.956-4.957 5.984 3.4c.76.431 1.186.988 1.257 1.556v.003c-.07.567-.497 1.124-1.257 1.556l-5.983 3.4Z" fill="url(#b)"/><path d="M14.268 39.434a1.546 1.546 0 0 0 0 0Zm0-.176c-.414 0-.777-.135-1.06-.39L28.076 24l4.957 4.957-17.419 9.897c-.482.273-.938.403-1.344.403Zm-1.064-.218a1.613 1.613 0 0 1-.077-.075l.077.075Z" fill="url(#c)"/><path d="M28.075 24.001 13.207 9.134c.283-.255.645-.39 1.06-.39.407 0 .863.13 1.346.404l17.418 9.896-4.956 4.957Zm5.068-5.069-17.53-9.96c-.483-.273-.94-.403-1.346-.403h-.006.008c.405 0 .862.13 1.344.403l17.53 9.96Z" fill="url(#d)"/><path d="M14.38 39.43c.376-.02.794-.15 1.233-.4l17.417-9.896-17.417 9.897c-.438.249-.857.378-1.234.4Zm-1.172-.386-.004-.004a.032.032 0 0 1 .004.004Zm-.081-.08-.008-.007.008.008Z" fill="#000"/><path d="m33.03 29.134.113-.064-.113.064Z" fill="url(#e)"/><path d="M14.27 39.434c-.416 0-.779-.136-1.061-.39a.032.032 0 0 0-.005-.004l-.077-.075-.008-.008.09-.09c.282.256.645.391 1.06.39.406 0 .862-.129 1.344-.402l17.419-9.897.111.112-.113.064-17.417 9.897c-.439.248-.857.378-1.234.4a2.266 2.266 0 0 1-.11.003Z" fill="url(#f)"/><path d="M13.12 38.957c-.35-.37-.556-.943-.556-1.686 0 .743.206 1.316.556 1.686Z" fill="#000"/><path d="M13.12 38.957c-.35-.37-.556-.943-.556-1.686v-.175c0 .743.206 1.317.556 1.686l.089.085-.09.09Z" fill="url(#g)"/><path d="m13.12 38.957.089-.09-.09.09Z" fill="url(#h)"/><path d="M40.134 24.622a1.49 1.49 0 0 1 0 0Z" fill="#000"/><path d="m33.143 29.07-.111-.112 5.983-3.4c.76-.431 1.186-.988 1.257-1.555 0 .208-.046.416-.138.619-.187.408-.56.794-1.12 1.112l-5.87 3.336Z" fill="url(#i)"/><path d="M40.272 24.001c0-.628-.42-1.256-1.257-1.732l-5.872-3.336 5.872 3.335c.838.477 1.258 1.105 1.257 1.733Z" fill="#404040"/><path d="M40.272 24c-.07-.568-.497-1.125-1.257-1.556l-5.984-3.4.112-.111 5.872 3.336c.837.476 1.257 1.104 1.257 1.732Z" fill="url(#j)"/><path d="M12.564 10.726v-.002.002Zm.005-.196v-.002.002Zm0-.005v-.006.006Zm0-.007c.07-1.233.74-1.945 1.689-1.95-.411.003-.77.138-1.05.39l-.003.004c-.03.026-.058.054-.085.083-.315.334-.514.833-.55 1.473Z" fill="#404040"/><path d="M12.564 10.907v-.183c0-.066.002-.13.005-.194v-.012c.037-.64.236-1.14.55-1.473l.088.089c-.402.363-.643.969-.643 1.773Zm.64-1.945.004-.004c0 .002-.002.003-.003.004Z" fill="url(#k)"/><path d="M33.031 19.044 15.613 9.148c-.483-.274-.94-.404-1.346-.404-.415 0-.777.135-1.06.39l-.088-.089c.028-.029.056-.057.086-.083l.003-.003c.28-.253.639-.388 1.05-.39H14.267c.407 0 .863.13 1.346.403l17.53 9.96-.112.112Z" fill="url(#l)"/><defs><linearGradient id="a" x1="26.757" y1="10.452" x2="6.618" y2="30.591" gradientUnits="userSpaceOnUse"><stop stop-color="#00A0FF"/><stop offset=".007" stop-color="#00A1FF"/><stop offset=".26" stop-color="#00BEFF"/><stop offset=".512" stop-color="#00D2FF"/><stop offset=".76" stop-color="#00DFFF"/><stop offset="1" stop-color="#00E3FF"/></linearGradient><linearGradient id="b" x1="41.198" y1="24.002" x2="12.162" y2="24.002" gradientUnits="userSpaceOnUse"><stop stop-color="#FFE000"/><stop offset=".409" stop-color="#FFBD00"/><stop offset=".775" stop-color="orange"/><stop offset="1" stop-color="#FF9C00"/></linearGradient><linearGradient id="c" x1="30.389" y1="26.755" x2="3.079" y2="54.065" gradientUnits="userSpaceOnUse"><stop stop-color="#FF3A44"/><stop offset="1" stop-color="#C31162"/></linearGradient><linearGradient id="d" x1="9.354" y1=".211" x2="21.549" y2="12.406" gradientUnits="userSpaceOnUse"><stop stop-color="#32A071"/><stop offset=".069" stop-color="#2DA771"/><stop offset=".476" stop-color="#15CF74"/><stop offset=".801" stop-color="#06E775"/><stop offset="1" stop-color="#00F076"/></linearGradient><linearGradient id="e" x1="41.198" y1="24.002" x2="12.162" y2="24.002" gradientUnits="userSpaceOnUse"><stop stop-color="#CCB300"/><stop offset=".409" stop-color="#CC9700"/><stop offset=".775" stop-color="#CC8400"/><stop offset="1" stop-color="#CC7D00"/></linearGradient><linearGradient id="f" x1="30.389" y1="26.755" x2="3.079" y2="54.065" gradientUnits="userSpaceOnUse"><stop stop-color="#CC2E36"/><stop offset="1" stop-color="#9C0E4E"/></linearGradient><linearGradient id="g" x1="26.757" y1="10.452" x2="6.618" y2="30.591" gradientUnits="userSpaceOnUse"><stop stop-color="#008DE0"/><stop offset=".007" stop-color="#008DE0"/><stop offset=".26" stop-color="#00A7E0"/><stop offset=".512" stop-color="#00B8E0"/><stop offset=".76" stop-color="#00C4E0"/><stop offset="1" stop-color="#00C7E0"/></linearGradient><linearGradient id="h" x1="30.39" y1="26.755" x2="3.079" y2="54.066" gradientUnits="userSpaceOnUse"><stop stop-color="#E0333C"/><stop offset="1" stop-color="#AB0F56"/></linearGradient><linearGradient id="i" x1="41.198" y1="24.002" x2="12.162" y2="24.002" gradientUnits="userSpaceOnUse"><stop stop-color="#E0C500"/><stop offset=".409" stop-color="#E0A600"/><stop offset=".775" stop-color="#E09100"/><stop offset="1" stop-color="#E08900"/></linearGradient><linearGradient id="j" x1="41.198" y1="24.002" x2="12.162" y2="24.002" gradientUnits="userSpaceOnUse"><stop stop-color="#FFE840"/><stop offset=".409" stop-color="#FFCE40"/><stop offset=".775" stop-color="#FFBC40"/><stop offset="1" stop-color="#FFB540"/></linearGradient><linearGradient id="k" x1="26.757" y1="10.452" x2="6.618" y2="30.591" gradientUnits="userSpaceOnUse"><stop stop-color="#40B8FF"/><stop offset=".007" stop-color="#40B9FF"/><stop offset=".26" stop-color="#40CEFF"/><stop offset=".512" stop-color="#40DDFF"/><stop offset=".76" stop-color="#40E7FF"/><stop offset="1" stop-color="#40EAFF"/></linearGradient><linearGradient id="l" x1="9.354" y1=".211" x2="21.549" y2="12.406" gradientUnits="userSpaceOnUse"><stop stop-color="#65B895"/><stop offset=".069" stop-color="#62BD95"/><stop offset=".476" stop-color="#50DB97"/><stop offset=".801" stop-color="#44ED98"/><stop offset="1" stop-color="#40F498"/></linearGradient></defs></svg>