<svg xmlns="http://www.w3.org/2000/svg" width="144" height="48" fill="none">
  <g clip-path="url(#a)">
    <path fill="#A6A6A6" d="M132.162 0H11.442c-.44 0-.875 0-1.314.002-.367.003-.732.01-1.103.016-.806.01-1.61.08-2.404.212a7.998 7.998 0 0 0-2.282.752 7.725 7.725 0 0 0-3.356 3.36 7.921 7.921 0 0 0-.75 2.284 15.592 15.592 0 0 0-.215 2.402c-.011.368-.012.737-.018 1.105V37.87c.006.373.007.734.018 1.107.01.805.082 1.608.215 2.402.132.795.385 1.566.75 2.285a7.45 7.45 0 0 0 1.414 1.937 7.53 7.53 0 0 0 1.942 1.415c.719.365 1.488.62 2.282.757.795.13 1.598.201 2.404.212.371.008.736.013 1.103.013.439.002.874.002 1.314.002h120.72c.431 0 .869 0 1.301-.002.365 0 .74-.005 1.106-.013a15.96 15.96 0 0 0 2.4-.212 8.179 8.179 0 0 0 2.29-.757 7.536 7.536 0 0 0 1.94-1.415 7.655 7.655 0 0 0 1.418-1.937c.363-.72.613-1.49.743-2.285.134-.794.208-1.597.223-2.402.005-.373.005-.734.005-1.107.009-.436.009-.87.009-1.312V11.443c0-.44 0-.875-.009-1.31 0-.368 0-.737-.005-1.105a16.258 16.258 0 0 0-.223-2.402 7.929 7.929 0 0 0-.743-2.284 7.76 7.76 0 0 0-3.358-3.36 8.131 8.131 0 0 0-2.29-.752 15.663 15.663 0 0 0-2.4-.213c-.366-.005-.741-.012-1.106-.015-.432-.002-.87-.002-1.301-.002Z"/>
    <path fill="#000" d="M10.134 46.95c-.366 0-.723-.005-1.085-.013a15.227 15.227 0 0 1-2.243-.196 7.061 7.061 0 0 1-1.988-.657 6.488 6.488 0 0 1-1.677-1.22 6.383 6.383 0 0 1-1.224-1.676 6.866 6.866 0 0 1-.652-1.988 14.897 14.897 0 0 1-.2-2.25c-.007-.254-.017-1.096-.017-1.096v-27.72s.01-.83.017-1.074c.01-.753.076-1.504.199-2.247a6.907 6.907 0 0 1 .652-1.994A6.448 6.448 0 0 1 3.134 3.14a6.679 6.679 0 0 1 1.683-1.227 6.988 6.988 0 0 1 1.984-.652 15.103 15.103 0 0 1 2.25-.197l1.083-.015h123.323l1.095.015c.748.01 1.493.074 2.23.195.698.119 1.374.34 2.006.658a6.718 6.718 0 0 1 2.898 2.904c.312.623.529 1.29.642 1.978.124.75.194 1.506.208 2.265.004.34.004.705.004 1.068.009.45.009.879.009 1.31v25.115c0 .436 0 .861-.009 1.29 0 .39 0 .748-.005 1.116a15.213 15.213 0 0 1-.205 2.224 6.871 6.871 0 0 1-.648 2.004 6.575 6.575 0 0 1-1.219 1.663c-.49.496-1.057.91-1.679 1.227a7.062 7.062 0 0 1-2.002.66 15.17 15.17 0 0 1-2.243.195 47.24 47.24 0 0 1-1.076.013l-1.301.002-122.028-.002Z"/>
    <path fill="#fff" d="M29.723 24.36a5.939 5.939 0 0 1 2.828-4.982 6.079 6.079 0 0 0-4.79-2.589c-2.015-.211-3.968 1.206-4.995 1.206-1.047 0-2.628-1.185-4.33-1.15a6.378 6.378 0 0 0-5.368 3.274c-2.32 4.018-.59 9.923 1.633 13.17 1.113 1.591 2.413 3.368 4.113 3.305 1.665-.07 2.287-1.062 4.296-1.062 1.99 0 2.574 1.062 4.309 1.022 1.786-.03 2.911-1.598 3.985-3.203a13.151 13.151 0 0 0 1.822-3.711 5.74 5.74 0 0 1-3.503-5.28Zm-3.278-9.707a5.847 5.847 0 0 0 1.337-4.189 5.95 5.95 0 0 0-3.849 1.992 5.565 5.565 0 0 0-1.372 4.034 4.918 4.918 0 0 0 3.884-1.837Zm24.318 17.915h-5.68l-1.364 4.027h-2.406l5.38-14.901h2.5l5.38 14.901h-2.447l-1.363-4.027Zm-5.092-1.859h4.502l-2.22-6.537h-.061L45.67 30.71Zm20.521.455c0 3.376-1.807 5.545-4.534 5.545a3.683 3.683 0 0 1-3.419-1.9h-.051v5.38h-2.23V25.731h2.158v1.807h.041a3.854 3.854 0 0 1 3.46-1.92c2.757 0 4.575 2.179 4.575 5.546Zm-2.293 0c0-2.2-1.136-3.646-2.87-3.646-1.705 0-2.85 1.476-2.85 3.646 0 2.189 1.145 3.655 2.85 3.655 1.734 0 2.87-1.436 2.87-3.655Zm14.251 0c0 3.376-1.808 5.545-4.535 5.545a3.683 3.683 0 0 1-3.418-1.9h-.052v5.38h-2.23V25.731h2.159v1.807h.041a3.854 3.854 0 0 1 3.46-1.92c2.757 0 4.574 2.179 4.574 5.546Zm-2.293 0c0-2.2-1.136-3.646-2.87-3.646-1.705 0-2.85 1.476-2.85 3.646 0 2.189 1.145 3.655 2.85 3.655 1.734 0 2.87-1.436 2.87-3.655Zm10.196 1.279c.165 1.478 1.6 2.448 3.562 2.448 1.88 0 3.232-.97 3.232-2.302 0-1.157-.816-1.85-2.747-2.324l-1.93-.465c-2.736-.661-4.007-1.941-4.007-4.018 0-2.57 2.241-4.337 5.423-4.337 3.148 0 5.307 1.766 5.38 4.337h-2.252c-.134-1.487-1.364-2.384-3.16-2.384-1.797 0-3.026.908-3.026 2.23 0 1.053.785 1.673 2.706 2.148l1.642.403c3.057.723 4.328 1.951 4.328 4.13 0 2.789-2.221 4.535-5.753 4.535-3.305 0-5.536-1.705-5.68-4.4h2.283Zm13.962-9.283v2.57h2.066v1.767h-2.066v5.99c0 .93.414 1.363 1.322 1.363a6.98 6.98 0 0 0 .734-.051v1.755a6.051 6.051 0 0 1-1.239.103c-2.2 0-3.057-.826-3.057-2.933v-6.227h-1.58V25.73h1.58v-2.57h2.24Zm3.263 8.004c0-3.419 2.013-5.567 5.153-5.567 3.15 0 5.154 2.148 5.154 5.567 0 3.427-1.994 5.566-5.154 5.566s-5.153-2.139-5.153-5.566Zm8.034 0c0-2.345-1.074-3.73-2.881-3.73-1.807 0-2.881 1.395-2.881 3.73 0 2.354 1.074 3.727 2.881 3.727 1.807 0 2.881-1.373 2.881-3.727Zm4.111-5.434h2.127v1.85h.052a2.59 2.59 0 0 1 2.613-1.963c.257 0 .513.027.764.083v2.086a3.117 3.117 0 0 0-1.002-.134 2.247 2.247 0 0 0-2.324 2.5v6.443h-2.23V25.731Zm15.838 7.674c-.3 1.973-2.221 3.326-4.678 3.326-3.161 0-5.122-2.117-5.122-5.515 0-3.408 1.972-5.618 5.028-5.618 3.006 0 4.896 2.065 4.896 5.36v.763h-7.673v.135a2.84 2.84 0 0 0 .767 2.198 2.822 2.822 0 0 0 2.156.88 2.46 2.46 0 0 0 2.509-1.529h2.117Zm-7.539-3.242h5.432a2.606 2.606 0 0 0-.73-1.961 2.607 2.607 0 0 0-1.935-.797 2.749 2.749 0 0 0-2.767 2.758ZM45.391 10.477a3.169 3.169 0 0 1 3.37 3.558c0 2.288-1.237 3.602-3.37 3.602h-2.586v-7.16h2.586Zm-1.474 6.148h1.35a2.251 2.251 0 0 0 2.361-2.575 2.257 2.257 0 0 0-2.36-2.56h-1.35v5.135Zm6.1-1.692a2.56 2.56 0 1 1 5.096 0 2.56 2.56 0 1 1-5.096 0Zm4 0c0-1.171-.527-1.856-1.45-1.856-.927 0-1.449.685-1.449 1.856 0 1.18.522 1.86 1.449 1.86.923 0 1.45-.684 1.45-1.86Zm7.871 2.704h-1.106l-1.117-3.98h-.084l-1.113 3.98h-1.095l-1.49-5.403h1.082l.968 4.123h.08l1.11-4.123h1.024l1.11 4.123h.085l.963-4.123h1.066l-1.483 5.403Zm2.736-5.403h1.027v.858h.08a1.618 1.618 0 0 1 1.612-.963 1.757 1.757 0 0 1 1.87 2.01v3.498h-1.066v-3.23c0-.868-.377-1.3-1.166-1.3a1.24 1.24 0 0 0-1.29 1.37v3.16h-1.067v-5.403Zm6.288-2.11h1.067v7.513h-1.067v-7.513Zm2.549 4.809a2.561 2.561 0 0 1 4.978-1.052c.113.339.153.697.12 1.052a2.56 2.56 0 1 1-5.098 0Zm4 0c0-1.171-.526-1.856-1.45-1.856-.927 0-1.448.685-1.448 1.856 0 1.18.521 1.86 1.448 1.86.924 0 1.45-.684 1.45-1.86Zm2.22 1.177c0-.973.724-1.534 2.01-1.614l1.463-.084v-.467c0-.57-.377-.893-1.106-.893-.595 0-1.008.219-1.126.6H79.89c.109-.927.982-1.522 2.207-1.522 1.355 0 2.12.674 2.12 1.815v3.692H83.19v-.76h-.085a1.817 1.817 0 0 1-1.623.85 1.633 1.633 0 0 1-1.8-1.618Zm3.474-.462v-.452l-1.32.084c-.744.05-1.082.303-1.082.78 0 .486.422.769 1.002.769a1.272 1.272 0 0 0 1.4-1.181Zm2.463-.715c0-1.707.878-2.789 2.243-2.789a1.782 1.782 0 0 1 1.657.948h.08v-2.968h1.066v7.513h-1.022v-.853h-.084a1.875 1.875 0 0 1-1.697.942c-1.375 0-2.243-1.081-2.243-2.793Zm1.101 0c0 1.146.54 1.836 1.444 1.836.899 0 1.454-.7 1.454-1.831 0-1.126-.56-1.836-1.454-1.836-.897 0-1.444.694-1.444 1.831Zm8.357 0a2.56 2.56 0 1 1 5.097 0 2.565 2.565 0 0 1-2.549 2.809 2.56 2.56 0 0 1-2.548-2.809Zm4 0c0-1.171-.527-1.856-1.45-1.856-.927 0-1.448.685-1.448 1.856 0 1.18.521 1.86 1.448 1.86.923 0 1.45-.684 1.45-1.86Zm2.527-2.699h1.027v.858h.08a1.616 1.616 0 0 1 1.612-.963 1.76 1.76 0 0 1 1.81 1.232c.078.251.099.517.06.778v3.498h-1.066v-3.23c0-.868-.377-1.3-1.166-1.3a1.235 1.235 0 0 0-1.232.842c-.057.17-.077.35-.058.527v3.161h-1.067v-5.403Zm10.615-1.345v1.37h1.171v.898h-1.171v2.778c0 .566.233.814.764.814.136 0 .272-.009.407-.025v.889a3.503 3.503 0 0 1-.58.054c-1.186 0-1.658-.417-1.658-1.459v-3.051h-.858v-.899h.858v-1.37h1.067Zm2.628-.765h1.057v2.978h.084a1.664 1.664 0 0 1 1.648-.968 1.774 1.774 0 0 1 1.404.57 1.778 1.778 0 0 1 .456 1.445v3.488h-1.067v-3.225c0-.863-.402-1.3-1.155-1.3a1.267 1.267 0 0 0-.999.368 1.265 1.265 0 0 0-.362 1.001v3.156h-1.066v-7.513Zm10.868 6.054a2.194 2.194 0 0 1-2.342 1.564 2.456 2.456 0 0 1-2.496-2.79 2.495 2.495 0 0 1 2.491-2.822c1.504 0 2.411 1.027 2.411 2.723v.373h-3.816v.06a1.44 1.44 0 0 0 .377 1.092 1.434 1.434 0 0 0 1.062.455 1.297 1.297 0 0 0 1.286-.655h1.027Zm-3.752-1.741h2.73a1.315 1.315 0 0 0-.355-.994 1.31 1.31 0 0 0-.975-.406 1.383 1.383 0 0 0-1.4 1.4Z"/>
  </g>
  <defs>
    <clipPath id="a">
      <path fill="#fff" d="M0 0h143.597v48H0z"/>
    </clipPath>
  </defs>
</svg>