<svg width="16" height="16" viewBox="0 0 16 16" fill="none" xmlns="http://www.w3.org/2000/svg">
<path d="M1.75 0C0.783502 0 0 0.783501 0 1.75V5.55C0 6.5165 0.783501 7.3 1.75 7.3H5.55C6.5165 7.3 7.3 6.5165 7.3 5.55V1.75C7.3 0.783502 6.5165 0 5.55 0H1.75Z" fill="currentColor"/>
<path d="M10.45 0C9.4835 0 8.7 0.783501 8.7 1.75V5.55C8.7 6.5165 9.4835 7.3 10.45 7.3H14.25C15.2165 7.3 16 6.5165 16 5.55V1.75C16 0.783502 15.2165 0 14.25 0H10.45Z" fill="currentColor"/>
<path d="M1.75 8.7C0.783502 8.7 0 9.4835 0 10.45V14.25C0 15.2165 0.783501 16 1.75 16H5.55C6.5165 16 7.3 15.2165 7.3 14.25V10.45C7.3 9.4835 6.5165 8.7 5.55 8.7H1.75Z" fill="currentColor"/>
<path d="M10.45 8.7C9.4835 8.7 8.7 9.4835 8.7 10.45V14.25C8.7 15.2165 9.4835 16 10.45 16H14.25C15.2165 16 16 15.2165 16 14.25V10.45C16 9.4835 15.2165 8.7 14.25 8.7H10.45Z" fill="currentColor"/>
</svg>
