<svg width="16" height="16" viewBox="0 0 16 16" fill="none" xmlns="http://www.w3.org/2000/svg">
<path fill-rule="evenodd" clip-rule="evenodd" d="M0 1.75C0 0.783501 0.783502 0 1.75 0H5.55C6.5165 0 7.3 0.783502 7.3 1.75V5.55C7.3 6.5165 6.5165 7.3 5.55 7.3H1.75C0.783501 7.3 0 6.5165 0 5.55V1.75ZM1.75 1.5C1.61193 1.5 1.5 1.61193 1.5 1.75V5.55C1.5 5.68807 1.61193 5.8 1.75 5.8H5.55C5.68807 5.8 5.8 5.68807 5.8 5.55V1.75C5.8 1.61193 5.68807 1.5 5.55 1.5H1.75ZM8.7 1.75C8.7 0.783501 9.4835 0 10.45 0H14.25C15.2165 0 16 0.783502 16 1.75V5.55C16 6.5165 15.2165 7.3 14.25 7.3H10.45C9.4835 7.3 8.7 6.5165 8.7 5.55V1.75ZM10.45 1.5C10.3119 1.5 10.2 1.61193 10.2 1.75V5.55C10.2 5.68807 10.3119 5.8 10.45 5.8H14.25C14.3881 5.8 14.5 5.68807 14.5 5.55V1.75C14.5 1.61193 14.3881 1.5 14.25 1.5H10.45ZM0 10.45C0 9.4835 0.783502 8.7 1.75 8.7H5.55C6.5165 8.7 7.3 9.4835 7.3 10.45V14.25C7.3 15.2165 6.5165 16 5.55 16H1.75C0.783501 16 0 15.2165 0 14.25V10.45ZM1.75 10.2C1.61193 10.2 1.5 10.3119 1.5 10.45V14.25C1.5 14.3881 1.61193 14.5 1.75 14.5H5.55C5.68807 14.5 5.8 14.3881 5.8 14.25V10.45C5.8 10.3119 5.68807 10.2 5.55 10.2H1.75ZM8.7 10.45C8.7 9.4835 9.4835 8.7 10.45 8.7H14.25C15.2165 8.7 16 9.4835 16 10.45V14.25C16 15.2165 15.2165 16 14.25 16H10.45C9.4835 16 8.7 15.2165 8.7 14.25V10.45ZM10.45 10.2C10.3119 10.2 10.2 10.3119 10.2 10.45V14.25C10.2 14.3881 10.3119 14.5 10.45 14.5H14.25C14.3881 14.5 14.5 14.3881 14.5 14.25V10.45C14.5 10.3119 14.3881 10.2 14.25 10.2H10.45Z" fill="currentColor"/>
</svg>
