<svg xmlns="http://www.w3.org/2000/svg" width="48" height="20" fill="none" viewBox="0 0 48 20">
  <path fill="#000" d="M9.049 2.579c.563-.694.946-1.626.845-2.579-.825.04-1.832.536-2.415 1.23-.523.596-.987 1.567-.866 2.48.926.079 1.852-.456 2.436-1.131ZM9.883 3.888c-1.345-.08-2.489.751-3.131.751-.643 0-1.627-.712-2.69-.692-1.385.02-2.67.79-3.373 2.017-1.445 2.453-.381 6.092 1.024 8.09.683.988 1.505 2.077 2.59 2.037 1.023-.04 1.425-.653 2.67-.653 1.244 0 1.605.653 2.69.634 1.123-.02 1.826-.99 2.509-1.979.783-1.126 1.103-2.214 1.123-2.274-.02-.02-2.167-.831-2.187-3.264-.02-2.037 1.686-3.006 1.766-3.066-.963-1.403-2.47-1.562-2.991-1.601ZM21.595 1.132c2.924 0 4.96 1.984 4.96 4.874 0 2.9-2.078 4.894-5.033 4.894h-3.237v5.07h-2.339V1.131h5.65Zm-3.31 7.835h2.683c2.037 0 3.195-1.08 3.195-2.951s-1.158-2.94-3.184-2.94h-2.694v5.891ZM27.165 12.895c0-1.892 1.472-3.054 4.083-3.198l3.007-.175V8.69c0-1.203-.825-1.923-2.203-1.923-1.306 0-2.12.617-2.318 1.583h-2.13c.125-1.953 1.816-3.393 4.531-3.393 2.663 0 4.365 1.388 4.365 3.558v7.454h-2.162v-1.778h-.052c-.637 1.203-2.026 1.963-3.466 1.963-2.151 0-3.655-1.316-3.655-3.259Zm7.09-.977v-.853l-2.705.164c-1.347.093-2.109.679-2.109 1.604 0 .946.794 1.563 2.005 1.563 1.577 0 2.809-1.07 2.809-2.478ZM38.54 19.949v-1.8c.167.041.543.041.73.041 1.045 0 1.609-.431 1.953-1.542 0-.02.199-.658.199-.668L37.454 5.152h2.443l2.778 8.802h.041l2.778-8.802h2.38L43.76 16.535C42.821 19.157 41.735 20 39.46 20c-.188 0-.752-.02-.919-.051Z"/>
</svg>