<svg xmlns="http://www.w3.org/2000/svg" width="46" height="29" fill="none" viewBox="0 0 46 29">
  <path fill="#000" d="M41.88 0H3.648c-.133.002-.265.003-.398.007-.289.008-.58.024-.865.075-.29.051-.56.135-.822.267a2.759 2.759 0 0 0-1.21 1.19 2.833 2.833 0 0 0-.27.81c-.051.281-.069.568-.076.852-.004.13-.005.26-.006.391L0 4.057v21.351c.002.13.003.261.007.391.007.284.025.57.076.852.052.285.137.55.27.81a2.744 2.744 0 0 0 1.209 1.19c.264.133.533.216.823.268.285.05.576.067.865.075l.398.005.472.001h37.76l.472-.001c.132 0 .265-.003.398-.005.288-.008.58-.025.865-.075.29-.052.559-.136.822-.268a2.748 2.748 0 0 0 1.48-2c.051-.281.068-.568.076-.852l.006-.39.001-.466V4.057l-.001-.465c0-.13-.003-.26-.006-.391a5.57 5.57 0 0 0-.076-.852 2.732 2.732 0 0 0-1.48-2 2.955 2.955 0 0 0-.822-.267 5.88 5.88 0 0 0-.865-.075A20.153 20.153 0 0 0 42.352 0L41.881 0Z"/>
  <path fill="#fff" d="M41.88.967h.465l.378.006c.22.006.478.018.718.06.208.037.383.093.551.178a1.775 1.775 0 0 1 .959 1.31c.042.234.054.488.06.706.004.123.005.247.006.373l.001.457v21.346c-.002.124-.003.247-.007.37a4.734 4.734 0 0 1-.06.709 1.855 1.855 0 0 1-.18.54 1.75 1.75 0 0 1-.78.768c-.167.084-.342.14-.548.177a5.062 5.062 0 0 1-.715.06c-.128.003-.254.005-.384.005-.154.002-.31.001-.464.001H3.653c-.128-.001-.254-.003-.376-.006a5.079 5.079 0 0 1-.718-.06 1.948 1.948 0 0 1-.552-.178 1.761 1.761 0 0 1-.779-.767 1.877 1.877 0 0 1-.18-.543 4.712 4.712 0 0 1-.06-.706 17.806 17.806 0 0 1-.006-.37V3.598c0-.123.002-.247.006-.37.006-.217.018-.47.061-.709.037-.204.094-.376.18-.542a1.745 1.745 0 0 1 .78-.767c.166-.084.341-.14.55-.177.24-.042.497-.054.718-.06.126-.003.251-.005.376-.005L4.12.967H41.88Z"/>
  <path fill="#000" d="M12.558 9.754c.394-.485.661-1.137.59-1.802-.576.028-1.28.374-1.687.86-.365.416-.69 1.094-.605 1.732.648.055 1.294-.319 1.702-.79ZM13.141 10.669c-.94-.056-1.739.525-2.188.525-.449 0-1.136-.498-1.88-.484a2.778 2.778 0 0 0-2.356 1.41c-1.01 1.714-.267 4.256.716 5.653.477.69 1.051 1.45 1.809 1.423.715-.027.996-.456 1.866-.456.869 0 1.121.456 1.879.443.786-.014 1.277-.692 1.754-1.383.547-.787.77-1.547.785-1.59-.014-.013-1.515-.58-1.529-2.28-.014-1.423 1.178-2.1 1.235-2.142-.674-.981-1.726-1.092-2.09-1.12ZM21.325 8.742c2.043 0 3.466 1.387 3.466 3.406 0 2.026-1.452 3.42-3.517 3.42h-2.262v3.542h-1.634V8.742h3.947Zm-2.313 5.475h1.875c1.423 0 2.233-.754 2.233-2.062 0-1.307-.81-2.055-2.225-2.055h-1.883v4.117ZM25.218 16.962c0-1.322 1.029-2.134 2.853-2.235l2.1-.122v-.582c0-.84-.575-1.343-1.538-1.343-.913 0-1.482.43-1.62 1.106h-1.489c.088-1.365 1.27-2.371 3.167-2.371 1.86 0 3.05.97 3.05 2.486v5.21h-1.51v-1.244h-.037c-.445.84-1.416 1.373-2.422 1.373-1.503 0-2.554-.92-2.554-2.278Zm4.954-.683v-.596l-1.89.115c-.941.065-1.474.474-1.474 1.12 0 .662.555 1.093 1.401 1.093 1.102 0 1.963-.747 1.963-1.732ZM33.166 21.89v-1.256c.117.028.38.028.51.028.73 0 1.124-.302 1.365-1.078 0-.014.139-.46.139-.467l-2.773-7.566h1.707l1.941 6.151h.03l1.94-6.15h1.664l-2.875 7.953c-.657 1.833-1.415 2.422-3.006 2.422-.131 0-.525-.015-.642-.036Z"/>
</svg>