<svg xmlns="http://www.w3.org/2000/svg" width="16" height="16" viewBox="0 0 16 16" fill="none">
<path fill-rule="evenodd" clip-rule="evenodd" d="M13.9724 0.19566C15.036 0.0247748 16 0.846249 16 1.9235V9.91885C16 11.6695 14.5842 13.0921 12.8333 13.0921C11.0825 13.0921 9.66667 11.6695 9.66667 9.91885C9.66667 8.16824 11.0825 6.74559 12.8333 6.74559C13.4452 6.74559 14.0161 6.91933 14.5 7.22008V1.9235C14.5 1.76961 14.3623 1.65226 14.2103 1.67667L6.54368 2.90843C6.42247 2.9279 6.33333 3.0325 6.33333 3.15526V12.8268C6.33333 14.5774 4.91749 16 3.16667 16C1.41584 16 0 14.5774 0 12.8268C0 11.0761 1.41584 9.6535 3.16667 9.6535C3.77851 9.6535 4.34944 9.82723 4.83333 10.128V3.15526C4.83333 2.29592 5.45727 1.56374 6.30573 1.42742L13.9724 0.19566ZM4.83333 12.8268C4.83333 11.9007 4.08522 11.1535 3.16667 11.1535C2.24812 11.1535 1.5 11.9007 1.5 12.8268C1.5 13.7528 2.24812 14.5 3.16667 14.5C4.08522 14.5 4.83333 13.7528 4.83333 12.8268ZM14.5 9.91885C14.5 8.99281 13.7519 8.24559 12.8333 8.24559C11.9148 8.24559 11.1667 8.99281 11.1667 9.91885C11.1667 10.8449 11.9148 11.5921 12.8333 11.5921C13.7519 11.5921 14.5 10.8449 14.5 9.91885Z" fill="currentColor"/>
</svg>
