<svg xmlns="http://www.w3.org/2000/svg" width="32" height="32" fill="none" viewBox="0 0 32 32">
  <path stroke="#10110D" stroke-linecap="round" stroke-linejoin="round" stroke-width="1.5" d="M9.077 25.868c.423 1.368 1.557 2.963 2.759 3.817A7.197 7.197 0 0 0 16 31a7.197 7.197 0 0 0 4.164-1.315c1.202-.854 2.336-2.45 2.76-3.817M16 1c3.315 0 6.495 1.248 8.839 3.468C27.183 6.69 28.5 9.701 28.5 12.842c0 11.125 2.5 13.026 2.5 13.026H1s2.5-3.025 2.5-13.026c0-3.14 1.317-6.153 3.661-8.374C9.505 2.248 12.685 1 16 1Z"/>
</svg>