<svg width="16" height="16" viewBox="0 0 16 16" fill="none" xmlns="http://www.w3.org/2000/svg">
<path fill-rule="evenodd" clip-rule="evenodd" d="M1.75 2.75C1.61193 2.75 1.5 2.86193 1.5 3V5.25H14.5V3C14.5 2.86193 14.3881 2.75 14.25 2.75H1.75ZM14.5 6.75H1.5V13C1.5 13.1381 1.61193 13.25 1.75 13.25H14.25C14.3881 13.25 14.5 13.1381 14.5 13V6.75ZM0 3C0 2.0335 0.783502 1.25 1.75 1.25H14.25C15.2165 1.25 16 2.0335 16 3V13C16 13.9665 15.2165 14.75 14.25 14.75H1.75C0.783501 14.75 0 13.9665 0 13V3Z" fill="currentColor"/>
</svg>