<svg width="32" height="32" viewBox="0 0 32 32" fill="none"
    xmlns="http://www.w3.org/2000/svg">
    <path d="M6.93642 3.89655C10.6051 6.65079 14.5513 12.2353 16.0001 15.2322C17.449 12.2355 21.3949 6.65074 25.0638 3.89655C27.7109 1.90919 32 0.37149 32 5.26454C32 6.24174 31.4397 13.4736 31.1111 14.6477C29.9689 18.7295 25.8067 19.7706 22.1043 19.1405C28.576 20.2419 30.2223 23.8904 26.6668 27.5388C19.9143 34.4678 16.9615 25.8003 16.2046 23.5793C16.0659 23.1721 16.001 22.9817 16 23.1436C15.999 22.9817 15.9341 23.1721 15.7954 23.5793C15.0388 25.8003 12.0861 34.4681 5.33316 27.5388C1.77764 23.8904 3.42392 20.2417 9.89572 19.1405C6.19323 19.7706 2.03094 18.7295 0.888878 14.6477C0.560262 13.4735 0 6.24163 0 5.26454C0 0.37149 4.28919 1.90919 6.93623 3.89655H6.93642Z" fill="#10110D"/>
</svg>
