<svg width="34" height="32" viewBox="0 0 34 32" fill="none"
    xmlns="http://www.w3.org/2000/svg">
    <path d="M13.3333 18.0995H8.46667C4.34294 18.0995 1 14.7193 1 10.5497C1 6.38013 4.34294 3 8.46667 3H25.5333C29.6571 3 33 6.38013 33 10.5497C33 12.8712 31.9637 14.948 30.3333 16.3329C29.9104 16.6922 29.4475 17.0049 28.9523 17.2633M25.0371 21.6362L28.6371 18.3854C29.0447 18.0173 28.9245 17.3447 28.4152 17.1435L13.0024 11.0524C12.4426 10.8311 11.8712 11.346 12.0256 11.9325L16.2833 28.0962C16.424 28.6304 17.0739 28.8266 17.482 28.4581L21.0792 25.2101L24.9852 29.6166C25.5257 30.2264 26.4538 30.2786 27.0579 29.7331L28.828 28.1348C29.4321 27.5893 29.4836 26.6526 28.943 26.0427L25.0371 21.6362Z" stroke="#10110D" style="stroke-opacity:1;" stroke-width="1.5"/>
</svg>
