<svg width="16" height="16" viewBox="0 0 16 16" fill="none" xmlns="http://www.w3.org/2000/svg">
<path fill-rule="evenodd" clip-rule="evenodd" d="M7.99999 1.5C7.40211 1.5 6.83677 1.72464 6.4264 2.11207C6.0175 2.49812 5.79646 3.0122 5.79646 3.53846V4.46154H10.2035V3.53846C10.2035 3.0122 9.98249 2.49812 9.57359 2.11207C9.16322 1.72464 8.59788 1.5 7.99999 1.5ZM11.7035 4.46154V3.53846C11.7035 2.58564 11.3022 1.68119 10.6033 1.02137C9.90591 0.362928 8.96875 0 7.99999 0C7.03123 0 6.09408 0.362928 5.39666 1.02137C4.69777 1.68119 4.29646 2.58564 4.29646 3.53846V4.46154H2.96808C2.09126 4.46154 1.34979 5.11042 1.23353 5.97949L0.15814 14.018C0.0177587 15.0673 0.833995 16 1.89269 16H14.1073C15.166 16 15.9822 15.0673 15.8419 14.018L14.7665 5.97949C14.6502 5.11042 13.9087 4.46154 13.0319 4.46154H11.7035Z" fill="currentColor"/>
</svg>