<svg width="16" height="16" viewBox="0 0 16 16" fill="none" xmlns="http://www.w3.org/2000/svg">
<path fill-rule="evenodd" clip-rule="evenodd" d="M13.7023 5.45766L14.0033 5.45741C15.1228 5.45681 15.9603 6.49837 15.6868 7.59994C15.1952 9.5806 14.3588 12.7684 13.9815 14.2002C13.7782 14.9715 13.0819 15.5001 12.291 15.5001H3.70901C2.91809 15.5001 2.22177 14.9715 2.01852 14.2002C1.64209 12.7718 0.808824 9.59583 0.316714 7.61419C0.0411769 6.50466 0.890191 5.46127 2.00981 5.45958C2.09752 5.45945 2.19047 5.45928 2.28886 5.45906L4.18056 0.483521L5.58264 1.01659L3.89401 5.458H12.0977L10.409 1.01659L11.8111 0.483521L13.7023 5.45766ZM14.231 7.23856C14.2658 7.09836 14.1639 6.95732 14.0041 6.9574L2.68897 6.958C2.4353 6.95878 2.21041 6.95928 2.01208 6.95958C1.84273 6.95984 1.73737 7.11123 1.7725 7.25267C2.26161 9.22222 3.09214 12.3879 3.469 13.818C3.49696 13.9241 3.59258 14.0001 3.70901 14.0001H12.291C12.4074 14.0001 12.503 13.9241 12.531 13.818C12.9088 12.3844 13.7424 9.20704 14.231 7.23856Z" fill="currentColor"/>
</svg>