<svg width="16" height="16" viewBox="0 0 16 16" fill="none" xmlns="http://www.w3.org/2000/svg">
<path fill-rule="evenodd" clip-rule="evenodd" d="M11.8111 0.483521L10.409 1.01659L12.0977 5.458H3.89401L5.58264 1.01659L4.18056 0.483521L2.28886 5.45906C2.19047 5.45928 2.09752 5.45945 2.00981 5.45958C0.890191 5.46127 0.0411769 6.50466 0.316714 7.61419C0.808824 9.59583 1.64209 12.7718 2.01852 14.2002C2.22177 14.9715 2.91809 15.5001 3.70901 15.5001H12.291C13.0819 15.5001 13.7782 14.9715 13.9815 14.2002C14.3588 12.7684 15.1952 9.5806 15.6868 7.59994C15.9603 6.49837 15.1228 5.45681 14.0033 5.45741L13.7023 5.45766L11.8111 0.483521Z" fill="currentColor"/>
</svg>