<svg width="16" height="16" viewBox="0 0 16 16" fill="none" xmlns="http://www.w3.org/2000/svg">
<path fill-rule="evenodd" clip-rule="evenodd" d="M7.351 0C6.38451 0 5.60101 0.783503 5.60101 1.75V1.86248C5.60101 1.95608 5.53191 2.09981 5.34531 2.18165C4.93572 2.3613 4.54562 2.58253 4.18116 2.84184C4.0199 2.95658 3.86589 2.9451 3.78612 2.90006L3.62164 2.80716C2.79173 2.33845 1.73935 2.62008 1.25445 3.44064L0.623451 4.50844C0.124708 5.35244 0.416485 6.44146 1.27039 6.92304L1.37228 6.9805C1.45354 7.02633 1.54727 7.15937 1.52653 7.36936C1.4854 7.78583 1.48653 8.20541 1.5299 8.62165C1.55189 8.83269 1.45788 8.96675 1.37632 9.01282L1.269 9.07345C0.41583 9.55538 0.124591 10.6439 0.623098 11.4875L1.25441 12.5558C1.73934 13.3764 2.7918 13.658 3.62173 13.1892L3.78751 13.0956C3.86755 13.0503 4.02268 13.0389 4.18474 13.1552C4.54802 13.416 4.9372 13.6386 5.34608 13.8195C5.53228 13.9019 5.60101 14.0454 5.60101 14.1387V14.25C5.60101 15.2165 6.38451 16 7.35101 16H8.64901C9.61551 16 10.399 15.2165 10.399 14.25V14.1365C10.399 14.0429 10.4679 13.8995 10.6539 13.8178C11.0639 13.6376 11.4544 13.416 11.8193 13.1562C11.9801 13.0417 12.1339 13.0531 12.2137 13.0982L12.3787 13.1913C13.2085 13.6597 14.2606 13.3781 14.7454 12.5577L15.3766 11.4899C15.8753 10.646 15.5838 9.55718 14.7302 9.07541L14.6244 9.01574C14.5433 8.96994 14.45 8.83749 14.4704 8.62884C14.5112 8.21227 14.5099 7.79259 14.4666 7.3762C14.4447 7.16585 14.5385 7.03202 14.62 6.98594L14.7312 6.92309C15.5843 6.44106 15.8754 5.3526 15.3768 4.50908L14.7455 3.44097C14.2606 2.6205 13.2083 2.33894 12.3784 2.80761L12.2089 2.90337C12.1289 2.94854 11.974 2.95996 11.812 2.84392C11.4496 2.58434 11.0616 2.36266 10.654 2.18239C10.4678 2.10002 10.399 1.9565 10.399 1.86316V1.75C10.399 0.783502 9.6155 0 8.64901 0H7.351ZM9.00196 10.4022C8.68364 10.5302 8.34306 10.5937 8.00001 10.5889C7.31952 10.5795 6.67012 10.3025 6.19226 9.81794C5.71439 9.33339 5.44649 8.6802 5.44649 7.99966C5.44649 7.31911 5.71439 6.66592 6.19226 6.18137C6.67012 5.69682 7.31952 5.41986 8.00001 5.41041C8.34306 5.40564 8.68364 5.46909 9.00196 5.59707C9.32028 5.72506 9.61 5.91502 9.85427 6.15593C10.0986 6.39683 10.2925 6.68388 10.4249 7.00039C10.5573 7.3169 10.6255 7.65657 10.6255 7.99966C10.6255 8.34274 10.5573 8.68241 10.4249 8.99892C10.2925 9.31543 10.0986 9.60248 9.85427 9.84339C9.61 10.0843 9.32028 10.2743 9.00196 10.4022Z" fill="currentColor"/>
</svg>
