<svg width="16" height="16" viewBox="0 0 16 16" fill="none" xmlns="http://www.w3.org/2000/svg">
<path fill-rule="evenodd" clip-rule="evenodd" d="M5.60101 1.75C5.60101 0.783503 6.38451 0 7.351 0H8.64901C9.61551 0 10.399 0.783502 10.399 1.75V1.86316C10.399 1.9565 10.4678 2.10002 10.654 2.18239C11.0616 2.36266 11.4496 2.58434 11.812 2.84392C11.974 2.95997 12.1289 2.94854 12.2089 2.90337L12.3784 2.80761C13.2083 2.33894 14.2606 2.6205 14.7455 3.44097L15.3768 4.50909C15.8754 5.3526 15.5843 6.44106 14.7312 6.92309L14.62 6.98594C14.5385 7.03202 14.4447 7.16585 14.4666 7.3762C14.5099 7.79259 14.5112 8.21227 14.4704 8.62884C14.45 8.83749 14.5433 8.96994 14.6244 9.01575L14.7302 9.07542C15.5838 9.55718 15.8753 10.646 15.3766 11.4899L14.7454 12.5577C14.2606 13.3781 13.2085 13.6597 12.3787 13.1913L12.2137 13.0982C12.1339 13.0531 11.9801 13.0417 11.8193 13.1562C11.4544 13.416 11.0639 13.6376 10.6539 13.8178C10.4679 13.8995 10.399 14.0429 10.399 14.1365V14.25C10.399 15.2165 9.61551 16 8.64901 16H7.35101C6.38451 16 5.60101 15.2165 5.60101 14.25V14.1387C5.60101 14.0454 5.53228 13.9019 5.34608 13.8195C4.9372 13.6386 4.54802 13.416 4.18474 13.1552C4.02268 13.0389 3.86755 13.0503 3.78751 13.0956L3.62173 13.1892C2.7918 13.658 1.73934 13.3764 1.25441 12.5558L0.623098 11.4875C0.124591 10.6439 0.41583 9.55538 1.269 9.07345L1.37632 9.01282C1.45788 8.96675 1.55189 8.83269 1.5299 8.62165C1.48653 8.20541 1.4854 7.78583 1.52653 7.36936C1.54727 7.15937 1.45354 7.02633 1.37228 6.9805L1.27039 6.92304C0.416485 6.44146 0.124707 5.35244 0.623451 4.50844L1.25445 3.44064C1.73935 2.62008 2.79173 2.33845 3.62164 2.80716L3.78612 2.90006C3.86589 2.9451 4.0199 2.95658 4.18116 2.84184C4.54562 2.58253 4.93572 2.3613 5.34531 2.18165C5.53191 2.09981 5.60101 1.95608 5.60101 1.86248V1.75ZM7.351 1.5C7.21293 1.5 7.10101 1.61193 7.10101 1.75V1.86248C7.10101 2.65778 6.57528 3.28011 5.94783 3.55532C5.63221 3.69376 5.33161 3.86423 5.05076 4.06405C4.50505 4.45232 3.72421 4.58778 3.04848 4.20615L2.884 4.11326C2.76544 4.0463 2.6151 4.08653 2.54583 4.20375L1.91483 5.27156C1.84358 5.39213 1.88526 5.54771 2.00725 5.6165L2.10914 5.67397C2.80688 6.06748 3.08644 6.83676 3.01927 7.51679C2.98808 7.83253 2.98894 8.15063 3.02182 8.46619C3.09294 9.14874 2.81477 9.92305 2.11407 10.3189L2.00675 10.3795C1.88486 10.4483 1.84326 10.6038 1.91447 10.7243L2.54579 11.7927C2.61506 11.9099 2.76542 11.9501 2.88398 11.8832L3.04976 11.7895C3.72873 11.406 4.51318 11.5446 5.05934 11.9366C5.3389 12.1372 5.6384 12.3085 5.95305 12.4478C6.57771 12.7242 7.10101 13.3453 7.10101 14.1387V14.25C7.10101 14.3881 7.21293 14.5 7.35101 14.5H8.64901C8.78708 14.5 8.89901 14.3881 8.89901 14.25V14.1365C8.89901 13.3421 9.42354 12.72 10.0505 12.4445C10.3667 12.3056 10.668 12.1346 10.9494 11.9342C11.4951 11.5458 12.2756 11.4106 12.9511 11.7919L13.116 11.885C13.2346 11.9519 13.3849 11.9117 13.4541 11.7945L14.0853 10.7267C14.1565 10.6061 14.1149 10.4506 13.9929 10.3817L13.8872 10.3221C13.1913 9.9293 12.9111 9.16224 12.9776 8.48282C13.0085 8.16635 13.0076 7.84762 12.9746 7.53149C12.9036 6.84902 13.1821 6.07553 13.8821 5.68001L13.9933 5.61716C14.1152 5.5483 14.1568 5.39281 14.0855 5.2723L13.4542 4.20419C13.385 4.08698 13.2346 4.04676 13.1161 4.11371L12.9465 4.20947C12.2681 4.5926 11.4844 4.45447 10.9384 4.06329C10.6596 3.86353 10.3609 3.69294 10.0473 3.55421C9.42247 3.27786 8.89901 2.65666 8.89901 1.86316V1.75C8.89901 1.61193 8.78708 1.5 8.64901 1.5H7.351ZM7.98958 4.66057C8.432 4.65442 8.87122 4.73625 9.28174 4.9013C9.69225 5.06635 10.0659 5.31134 10.3809 5.62202C10.6959 5.9327 10.9461 6.30289 11.1168 6.71107C11.2876 7.11925 11.3755 7.5573 11.3755 7.99975C11.3755 8.44221 11.2876 8.88025 11.1168 9.28843C10.9461 9.69662 10.6959 10.0668 10.3809 10.3775C10.0659 10.6882 9.69225 10.9331 9.28174 11.0982C8.87122 11.2632 8.432 11.3451 7.98958 11.3389C7.11202 11.3267 6.27452 10.9696 5.65826 10.3447C5.04199 9.71978 4.69649 8.8774 4.69649 7.99975C4.69649 7.1221 5.04199 6.27972 5.65826 5.65483C6.27452 5.02994 7.11202 4.67277 7.98958 4.66057ZM8.72218 6.29303C8.49606 6.20212 8.25412 6.15704 8.01043 6.16043C7.52703 6.16715 7.06572 6.36389 6.72626 6.7081C6.3868 7.05231 6.19649 7.51631 6.19649 7.99975C6.19649 8.48319 6.3868 8.9472 6.72626 9.2914C7.06572 9.63561 7.52703 9.83236 8.01043 9.83907C8.25412 9.84246 8.49606 9.79739 8.72218 9.70647C8.94831 9.61556 9.15411 9.48061 9.32764 9.30948C9.50117 9.13835 9.63896 8.93444 9.73301 8.7096C9.82706 8.48476 9.87549 8.24347 9.87549 7.99975C9.87549 7.75603 9.82706 7.51475 9.73301 7.2899C9.63896 7.06506 9.50117 6.86115 9.32764 6.69002C9.15411 6.51889 8.94831 6.38395 8.72218 6.29303Z" fill="currentColor"/>
</svg>
