<svg width="16" height="16" viewBox="0 0 16 16" fill="none" xmlns="http://www.w3.org/2000/svg">
<path fill-rule="evenodd" clip-rule="evenodd" d="M12.8333 0C11.0844 0 9.66667 1.41776 9.66667 3.16667C9.66667 3.53733 9.73035 3.89313 9.84738 4.2237L5.70513 6.10654C5.12771 5.33367 4.20562 4.83333 3.16667 4.83333C1.41776 4.83333 0 6.2511 0 8C0 9.7489 1.41776 11.1667 3.16667 11.1667C3.99669 11.1667 4.75212 10.8473 5.31681 10.3248L9.70794 12.3208C9.68078 12.4876 9.66667 12.6588 9.66667 12.8333C9.66667 14.5822 11.0844 16 12.8333 16C14.5822 16 16 14.5822 16 12.8333C16 11.0844 14.5822 9.66667 12.8333 9.66667C11.7944 9.66667 10.8723 10.167 10.2949 10.9399L6.15262 9.05703C6.26965 8.72646 6.33333 8.37067 6.33333 8C6.33333 7.82549 6.31922 7.65428 6.29206 7.48744L10.6832 5.49147C11.2479 6.01399 12.0033 6.33333 12.8333 6.33333C14.5822 6.33333 16 4.91557 16 3.16667C16 1.41776 14.5822 0 12.8333 0Z" fill="currentColor"/>
</svg>