<svg width="16" height="16" viewBox="0 0 16 16" fill="none" xmlns="http://www.w3.org/2000/svg">
<path fill-rule="evenodd" clip-rule="evenodd" d="M12.8333 1.5C11.9129 1.5 11.1667 2.24619 11.1667 3.16667C11.1667 4.08714 11.9129 4.83333 12.8333 4.83333C13.7538 4.83333 14.5 4.08714 14.5 3.16667C14.5 2.24619 13.7538 1.5 12.8333 1.5ZM9.66667 3.16667C9.66667 1.41776 11.0844 0 12.8333 0C14.5822 0 16 1.41776 16 3.16667C16 4.91557 14.5822 6.33333 12.8333 6.33333C12.0033 6.33333 11.2479 6.01399 10.6832 5.49147L6.29206 7.48744C6.31922 7.65428 6.33333 7.82549 6.33333 8C6.33333 8.37067 6.26965 8.72646 6.15262 9.05703L10.2949 10.9399C10.8723 10.167 11.7944 9.66667 12.8333 9.66667C14.5822 9.66667 16 11.0844 16 12.8333C16 14.5822 14.5822 16 12.8333 16C11.0844 16 9.66667 14.5822 9.66667 12.8333C9.66667 12.6588 9.68078 12.4876 9.70794 12.3208L5.31681 10.3248C4.75212 10.8473 3.99669 11.1667 3.16667 11.1667C1.41776 11.1667 0 9.7489 0 8C0 6.2511 1.41776 4.83333 3.16667 4.83333C4.20562 4.83333 5.12771 5.33367 5.70513 6.10654L9.84738 4.2237C9.73035 3.89313 9.66667 3.53733 9.66667 3.16667ZM3.16667 6.33333C2.24619 6.33333 1.5 7.07952 1.5 8C1.5 8.92047 2.24619 9.66667 3.16667 9.66667C4.08714 9.66667 4.83333 8.92047 4.83333 8C4.83333 7.07952 4.08714 6.33333 3.16667 6.33333ZM12.8333 11.1667C11.9129 11.1667 11.1667 11.9129 11.1667 12.8333C11.1667 13.7538 11.9129 14.5 12.8333 14.5C13.7538 14.5 14.5 13.7538 14.5 12.8333C14.5 11.9129 13.7538 11.1667 12.8333 11.1667Z" fill="currentColor"/>
</svg>