<svg width="16" height="16" viewBox="0 0 16 16" fill="none" xmlns="http://www.w3.org/2000/svg">
<path fill-rule="evenodd" clip-rule="evenodd" d="M3 1.5C2.86193 1.5 2.75 1.61193 2.75 1.75V13.2727H1.25V1.75C1.25 0.7835 2.0335 0 3 0H10.5029V1.5H3ZM6.33333 4.79545C6.19526 4.79545 6.08333 4.90738 6.08333 5.04545V14.25C6.08333 14.3881 6.19526 14.5 6.33333 14.5H13C13.1381 14.5 13.25 14.3881 13.25 14.25V7.76959C13.25 7.70116 13.2219 7.63571 13.1724 7.58853L10.311 4.86439C10.2645 4.82014 10.2027 4.79545 10.1386 4.79545H6.33333ZM4.58333 5.04545C4.58333 4.07895 5.36684 3.29545 6.33333 3.29545H10.1386C10.5878 3.29545 11.0199 3.46822 11.3452 3.77799L14.2067 6.50212C14.5536 6.83244 14.75 7.29054 14.75 7.76959V14.25C14.75 15.2165 13.9665 16 13 16H6.33333C5.36684 16 4.58333 15.2165 4.58333 14.25V5.04545Z" fill="currentColor"/>
</svg>
