<svg width="32" height="32" viewBox="0 0 32 32" fill="none" xmlns="http://www.w3.org/2000/svg">
<g id="Delivery truck">
<path id="Icon" d="M5 23.3636H3.72727C3.00395 23.3636 1.00015 23.3636 1.00015 23.3636C1.00015 23.3636 1 21.3597 1 20.6364V9.72727C1 9.00396 1.00007 5.0002 1.00007 5.0002C1.00007 5.0002 3.00395 5 3.72727 5H18.2727C18.996 5 21 5 21 5C21 5 21 9.00396 21 9.72727V15.1816M21.4545 9.72701H26.9091C26.9387 9.72701 26.9688 9.72701 26.9994 9.72701C29.2085 9.72701 31 11.518 31 13.727C31 14.303 31 14.8216 31 15.1816V20.6361C31 21.3594 31 23.3634 31 23.3634C31 23.3634 30.3597 23.3634 29.6364 23.3634H26.3818M19 23.3634H12M25.9817 23.3995C25.9817 25.2773 24.4595 26.7995 22.5817 26.7995C20.7039 26.7995 19.1817 25.2773 19.1817 23.3995C19.1817 21.5217 20.7039 19.9995 22.5817 19.9995C24.4595 19.9995 25.9817 21.5217 25.9817 23.3995ZM11.8909 23.3634C11.8909 25.2411 10.3687 26.7634 8.49091 26.7634C6.61314 26.7634 5.09091 25.2411 5.09091 23.3634C5.09091 21.4856 6.61314 19.9634 8.49091 19.9634C10.3687 19.9634 11.8909 21.4856 11.8909 23.3634Z" stroke="#10110D" stroke-width="1.5" stroke-linecap="round"/>
</g>
</svg>
