<svg width="16" height="16" viewBox="0 0 16 16" fill="none" xmlns="http://www.w3.org/2000/svg">
<path fill-rule="evenodd" clip-rule="evenodd" d="M9.73805 2.90431L7.73427 13.3776L6.26099 13.0957L8.26477 2.62244L9.73805 2.90431ZM4.75048 5.19965L1.64395 7.80909C1.52501 7.909 1.52501 8.09204 1.64395 8.19194L4.75048 10.8014L3.7857 11.95L0.679172 9.34051C-0.153393 8.64116 -0.153392 7.35987 0.679173 6.66052L3.7857 4.05108L4.75048 5.19965ZM12.2132 4.05109L15.3204 6.66037C16.1532 7.35973 16.1532 8.6413 15.3204 9.34066L12.2132 11.9499L11.2486 10.8012L14.3558 8.19197C14.4747 8.09206 14.4747 7.90898 14.3558 7.80907L11.2486 5.19979L12.2132 4.05109Z" fill="currentColor"/>
</svg>