<svg xmlns="http://www.w3.org/2000/svg" width="32" height="32" fill="none" viewBox="0 0 32 32">
  <path fill="#10110D" d="M27.636 6.91S24.301 4.297 20.364 4l-.355.71c3.559.873 5.192 2.12 6.9 3.654C23.966 6.86 21.062 5.454 16 5.454S8.034 6.862 5.09 8.365C6.8 6.829 8.743 5.443 11.992 4.71L11.636 4c-4.13.39-7.272 2.91-7.272 2.91S.639 12.31 0 22.91c3.753 4.328 9.455 4.363 9.455 4.363l1.192-1.589c-2.024-.704-4.308-1.96-6.283-4.23 2.355 1.782 5.909 3.637 11.636 3.637 5.727 0 9.282-1.855 11.636-3.637-1.974 2.27-4.258 3.526-6.283 4.23l1.192 1.589s5.702-.035 9.455-4.364c-.64-10.6-4.364-16-4.364-16ZM11.273 20c-1.407 0-2.546-1.302-2.546-2.91 0-1.606 1.14-2.908 2.546-2.908s2.545 1.302 2.545 2.909c0 1.607-1.139 2.909-2.545 2.909Zm9.454 0c-1.406 0-2.545-1.302-2.545-2.91 0-1.606 1.139-2.908 2.545-2.908 1.407 0 2.546 1.302 2.546 2.909 0 1.607-1.14 2.909-2.546 2.909Z"/>
</svg>