<svg width="16" height="16" viewBox="0 0 16 16" fill="none" xmlns="http://www.w3.org/2000/svg">
<path fill-rule="evenodd" clip-rule="evenodd" d="M1.5428 7.25H4.55822C4.69354 5.36917 5.33672 3.51242 6.45695 1.68426C3.84794 2.31947 1.85539 4.52922 1.5428 7.25ZM8 2.0522C6.83971 3.81555 6.20621 5.54637 6.06283 7.25H9.93717C9.79379 5.54637 9.16029 3.81555 8 2.0522ZM9.93717 8.75H6.06283C6.20621 10.4536 6.83971 12.1844 8 13.9478C9.16029 12.1844 9.79379 10.4536 9.93717 8.75ZM6.45695 14.3157C5.33672 12.4876 4.69354 10.6308 4.55822 8.75H1.5428C1.85539 11.4708 3.84794 13.6805 6.45695 14.3157ZM9.54305 14.3157C10.6633 12.4876 11.3065 10.6308 11.4418 8.75H14.4572C14.1446 11.4708 12.1521 13.6805 9.54305 14.3157ZM14.4572 7.25H11.4418C11.3065 5.36917 10.6633 3.51242 9.54305 1.68426C12.1521 2.31947 14.1446 4.52922 14.4572 7.25ZM0 8C0 3.58172 3.58172 0 8 0C12.4183 0 16 3.58172 16 8C16 12.4183 12.4183 16 8 16C3.58172 16 0 12.4183 0 8Z" fill="currentColor"/>
</svg>