<?xml version="1.0" encoding="UTF-8"?>
<svg width="80" height="106" viewBox="0 0 80 106" fill="none" xmlns="http://www.w3.org/2000/svg">
    <mask id="mask0" mask-type="alpha" maskUnits="userSpaceOnUse" x="0" y="0" width="80" height="106">
        <rect width="80" height="106" fill="#F5F4F3"/>
    </mask>
    <g mask="url(#mask0)">
        <rect width="80" height="106" fill="#F5F4F3"/>
        <path d="M24.8801 1.23999H16.0801V12.92C-1.19991 14.52 -17.6799 24.92 -17.6799 43.32C-17.6799 61.24 -4.71991 71.64 12.5601 76.44L16.0801 77.4V120.76C5.04009 119.32 -5.35991 111.16 -5.67991 94.2H-20.7199C-21.0399 115.48 -5.99991 131 16.0801 132.92V146.52H24.8801V132.92C45.5201 131.64 62.8001 120.76 62.8001 99.16C62.8001 77.08 44.8801 70.2 27.2801 65.4L24.8801 64.76V25.08C35.2801 26.36 44.7201 32.76 45.0401 49.24H60.0801C60.4001 28.12 46.6401 14.52 24.8801 12.92V1.23999ZM15.9201 62.36C3.44009 58.68 -2.63991 52.76 -2.63991 43.16C-2.63991 31.32 6.64009 25.56 16.0801 24.92V62.52L15.9201 62.36ZM24.8801 79.8C38.9601 83.64 47.7601 87.8 47.7601 101.4C47.7601 113.88 37.0401 120.12 24.8801 120.92V79.8Z" fill="#EAEAE9"/>
        <path d="M41.3914 37.5707H39.6314V39.9067C36.1754 40.2267 32.8794 42.3067 32.8794 45.9867C32.8794 49.5707 35.4714 51.6507 38.9274 52.6107L39.6314 52.8027V61.4747C37.4234 61.1867 35.3434 59.5547 35.2794 56.1627H32.2714C32.2074 60.4187 35.2154 63.5227 39.6314 63.9067V66.6267H41.3914V63.9067C45.5194 63.6507 48.9754 61.4747 48.9754 57.1547C48.9754 52.7387 45.3914 51.3627 41.8714 50.4027L41.3914 50.2747V42.3387C43.4714 42.5947 45.3594 43.8747 45.4234 47.1707H48.4314C48.4954 42.9467 45.7434 40.2267 41.3914 39.9067V37.5707ZM39.5994 49.7947C37.1034 49.0587 35.8874 47.8747 35.8874 45.9547C35.8874 43.5867 37.7434 42.4347 39.6314 42.3067V49.8267L39.5994 49.7947ZM41.3914 53.2827C44.2074 54.0507 45.9674 54.8827 45.9674 57.6027C45.9674 60.0987 43.8234 61.3467 41.3914 61.5067V53.2827Z" fill="#10110D"/>
    </g>
</svg>
