<svg width="16" height="16" viewBox="0 0 16 16" fill="none" xmlns="http://www.w3.org/2000/svg">
<path fill-rule="evenodd" clip-rule="evenodd" d="M4.83333 1.75C4.83333 0.783503 5.61683 0 6.58333 0H14.25C15.2165 0 16 0.783501 16 1.75V9.9C16 10.8665 15.2165 11.65 14.25 11.65H11.1667V14.25C11.1667 15.2165 10.3832 16 9.41667 16H1.75C0.783504 16 0 15.2165 0 14.25V6.1C0 5.1335 0.783501 4.35 1.75 4.35H4.83333V1.75ZM4.83333 5.85H1.75C1.61193 5.85 1.5 5.96193 1.5 6.1V14.25C1.5 14.3881 1.61193 14.5 1.75 14.5H9.41667C9.55474 14.5 9.66667 14.3881 9.66667 14.25V11.65H6.58333C5.61684 11.65 4.83333 10.8665 4.83333 9.9V5.85ZM6.58333 1.5C6.44526 1.5 6.33333 1.61193 6.33333 1.75V9.9C6.33333 10.0381 6.44526 10.15 6.58333 10.15H14.25C14.3881 10.15 14.5 10.0381 14.5 9.9V1.75C14.5 1.61193 14.3881 1.5 14.25 1.5H6.58333Z" fill="currentColor"/>
</svg>
