<svg width="16" height="16" viewBox="0 0 16 16" fill="none" xmlns="http://www.w3.org/2000/svg">
<path fill-rule="evenodd" clip-rule="evenodd" d="M1.23849 1.75L14.7615 1.75C15.4464 1.75003 16 2.30532 16 2.98885V12.5C16 13.4665 15.2165 14.25 14.25 14.25H1.75001C0.783526 14.25 2.42591e-05 13.4665 9.17912e-06 12.5L0 2.98885C3.52263e-05 2.30533 0.553681 1.75003 1.23849 1.75ZM1.5 4.68277L1.50001 12.5C1.50001 12.638 1.61194 12.75 1.75001 12.75H14.25C14.3881 12.75 14.5 12.638 14.5 12.5V4.68087L9.16978 9.51212C8.50245 10.117 7.48501 10.1165 6.81819 9.51114L1.5 4.68277ZM13.8451 3.24997L8.16241 8.40071C8.06708 8.48712 7.92173 8.48706 7.82647 8.40057L2.15337 3.24997L13.8451 3.24997Z" fill="currentColor"/>
</svg>