<svg xmlns="http://www.w3.org/2000/svg" xmlns:xlink="http://www.w3.org/1999/xlink" width="145" height="30" viewBox="0 0 145 30">
  <defs>
    <path id="a" d="M0 .042h25.271v24.954H0z"/>
  </defs>
  <g fill="none" fill-rule="evenodd">
    <g transform="translate(72.884 .056)">
      <mask id="b" fill="#fff">
        <use xlink:href="#a"/>
      </mask>
      <path fill="#1D1D1B" d="M12.635 1.344c-6.24 0-11.316 5.015-11.316 11.174 0 6.163 5.076 11.178 11.316 11.178 6.241 0 11.318-5.015 11.318-11.178 0-6.16-5.077-11.174-11.318-11.174m0 23.652C5.668 24.996 0 19.399 0 12.518 0 5.638 5.668.04 12.635.04c6.968 0 12.636 5.597 12.636 12.477 0 6.881-5.668 12.478-12.636 12.478" mask="url(#b)"/>
    </g>
    <path fill="#1D1D1B" d="M82.113 11.163a1.21 1.21 0 0 1-1.22 1.202 1.21 1.21 0 0 1-1.215-1.202 1.21 1.21 0 0 1 1.215-1.204c.675 0 1.22.538 1.22 1.204m9.25-.078a1.21 1.21 0 0 1-1.218 1.204 1.21 1.21 0 0 1-1.217-1.204c0-.664.545-1.205 1.217-1.205.673 0 1.218.54 1.218 1.205M85.52 18.97a6.325 6.325 0 0 1-4.481-1.835.645.645 0 0 1 0-.92.665.665 0 0 1 .931 0c1.897 1.874 5.202 1.874 7.099 0a.665.665 0 0 1 .932 0 .645.645 0 0 1 0 .92 6.33 6.33 0 0 1-4.481 1.835"/>
    <path fill="#10110D" d="m114.515 13.391-2.063 10.626-1.831-10.626h-4.939l-1.799 10.626-2.065-10.626h-4.91l3.603 15.664h5.549l2.092-11.558 2.091 11.558h5.58l3.602-15.664z"/>
    <path fill="#10110D" d="M124.804 26.172c1.917 0 3.37-.814 3.37-3.697v-.379c-3.341.29-5.579.729-5.579 2.387 0 1.019.96 1.69 2.21 1.69m.61-10.017c-1.541 0-2.616.787-2.79 2.3h-4.474c.202-2.94 3.05-5.56 7.668-5.56 4.476 0 7.062 1.804 6.974 6.58l-.057 3.406c-.03 2.039.057 4.833.347 6.172h-4.706l-.058-1.892c-1.162 1.66-3.021 2.27-5.259 2.27-2.963 0-5.404-1.746-5.404-4.599 0-3.843 4.33-5.125 10.402-5.561v-.611c0-1.834-.93-2.505-2.644-2.505M134.034 29.055h4.792V7.947h-4.792zM140.128 29.055h4.795V7.947h-4.795zM10.384 7.946h2.47l-.727 3.378h-1.365c-1.714 0-2.092.087-2.383 1.28l-.145.786h3.457l-.726 3.407H7.507L4.921 29.055H.127l2.587-12.258H.564l.727-3.407h2.12l.233-.989C4.4 8.704 6.2 7.946 10.384 7.946"/>
    <path fill="#10110D" d="M17.027 16.71c-2.616 0-3.953 2.709-3.953 5.706 0 2.185.96 3.29 2.761 3.29 2.615 0 3.95-2.707 3.95-5.707 0-2.183-.958-3.288-2.758-3.288m.348-3.728c4.184 0 7.35 2.184 7.35 6.784 0 4.018-2.528 9.666-9.21 9.666-4.183 0-7.38-2.184-7.38-6.784 0-4.017 2.557-9.666 9.24-9.666"/>
    <path fill="#10110D" d="M28.055 29.433c-2.846 0-4.504-1.456-4.504-4.542 0-.786.117-1.63.32-2.62l1.86-8.881h4.794l-1.743 8.21c-.175.758-.263 1.398-.263 1.951 0 1.485.64 2.243 1.977 2.243 1.917 0 3.282-1.397 3.864-4.193l1.743-8.211h4.793l-3.311 15.664h-4.678l.436-2.008c-.988 1.252-2.615 2.387-5.288 2.387m36.419-13.946c1.045-1.31 2.556-2.416 5.17-2.416 2.849 0 4.504 1.455 4.504 4.571 0 .785-.116 1.66-.32 2.62l-1.859 8.793h-4.793l1.743-8.153c.174-.757.262-1.397.262-1.95 0-1.456-.64-2.184-1.976-2.184-1.888 0-3.284 1.34-3.864 4.134l-1.743 8.153h-4.795l4.475-21.109h4.794l-1.598 7.54z"/>
    <path fill="#10110D" d="M56.052 16.797h3.458l.726-3.406H56.78l.93-4.28h-4.794l-.875 4.105h-.514c-2.383 0-4.155 1.368-5.259 3.057l.61-2.882h-4.648l-3.312 15.664h4.794l1.685-7.948c.465-2.33 1.887-3.029 3.922-3.029.494 0 1.074.03 1.655.146l-1.37 6.435c-.146.697-.233 1.309-.233 1.804 0 2.126 1.366 2.592 4.445 2.592h3.11l.725-3.466h-1.395c-1.278 0-1.771-.174-1.771-.988 0-.234.029-.467.087-.787l1.481-7.017Z"/>
  </g>
</svg>