<svg width="44" height="44" viewBox="0 0 44 44" fill="none" xmlns="http://www.w3.org/2000/svg">
<rect width="44" height="44" rx="8" fill="#161712"/>
<path fill-rule="evenodd" clip-rule="evenodd" d="M21.0211 17.6427L22.7764 26.7049L24.3333 17.6427H28.5352L30.0676 26.7049L31.8229 17.6427H36L32.9351 30.9999H28.214L26.4344 21.1433L24.6547 30.9999H19.9089L16.844 17.6427H21.0211ZM17.8267 13L17.2087 15.8802H16.047C14.5887 15.8802 14.2674 15.9547 14.0201 16.9723L13.8965 17.6428H16.8379L16.2197 20.5475H13.2785L11.0785 31H7L9.19997 20.5475H7.37095L7.98898 17.6428H9.79336L9.99115 16.7984C10.6338 13.6455 12.1663 13 15.7255 13H17.8267Z" fill="white"/>
</svg>
