<svg xmlns="http://www.w3.org/2000/svg" width="128" height="79" fill="none" viewBox="0 0 128 79">
  <path fill="#10110D" fill-rule="evenodd" d="m61.886 20.376 7.748 39.773 6.871-39.773h18.547l6.764 39.773 7.747-39.773H128L114.472 79H93.634L85.78 35.74 77.924 79H56.977L43.45 20.376h18.437ZM47.786 0 45.06 12.64H39.93c-6.436 0-7.854.328-8.945 4.794l-.546 2.943h12.983l-2.73 12.748H27.713L18.002 79H0l9.71-45.875H1.637l2.728-12.748h7.964l.873-3.706C16.04 2.833 22.802 0 38.512 0h9.275Z" clip-rule="evenodd"/>
</svg>