<svg xmlns="http://www.w3.org/2000/svg" width="16" height="16" viewBox="0 0 16 16" fill="none">
  <path d="M13.25 8.75H8.75V14.25H13C13.1381 14.25 13.25 14.1381 13.25 14V8.75ZM2.75 14C2.75 14.1381 2.86193 14.25 3 14.25H7.25V8.75H2.75V14ZM14.25 5C14.25 4.86193 14.1381 4.75 14 4.75H8.75V7.25H14C14.1381 7.25 14.25 7.13807 14.25 7V5ZM1.75 7C1.75 7.13807 1.86193 7.25 2 7.25H7.25V4.75H2C1.86193 4.75 1.75 4.86193 1.75 5V7ZM7.25 2.5C7.25 2.08579 6.91421 1.75 6.5 1.75C6.08579 1.75 5.75 2.08579 5.75 2.5C5.75 2.91421 6.08579 3.25 6.5 3.25C6.91421 3.25 7.25 2.91421 7.25 2.5ZM8.75 2.5C8.75 2.91421 9.08579 3.25 9.5 3.25C9.91421 3.25 10.25 2.91421 10.25 2.5C10.25 2.08579 9.91421 1.75 9.5 1.75C9.08579 1.75 8.75 2.08579 8.75 2.5ZM11.75 2.5C11.75 2.76331 11.7023 3.01516 11.6191 3.25H14C14.9665 3.25 15.75 4.0335 15.75 5V7C15.75 7.69772 15.3407 8.29804 14.75 8.5791V14C14.75 14.9665 13.9665 15.75 13 15.75H3C2.0335 15.75 1.25 14.9665 1.25 14V8.5791C0.659284 8.29804 0.25 7.69772 0.25 7V5C0.25 4.0335 1.0335 3.25 2 3.25H4.38086C4.29775 3.01516 4.25 2.76331 4.25 2.5C4.25 1.25736 5.25736 0.25 6.5 0.25C7.07705 0.25 7.60174 0.469031 8 0.826172C8.39826 0.469031 8.92295 0.25 9.5 0.25C10.7426 0.25 11.75 1.25736 11.75 2.5Z" fill="#10110D"/>
</svg>