<svg width="16" height="16" viewBox="0 0 16 16" fill="none" xmlns="http://www.w3.org/2000/svg">
<path d="M11.1316 1.90909V13.9091C11.1316 15.2528 12.0699 16 13.0658 16C13.9868 16 15 15.3636 15 13.9091V2C15 0.769885 14.0789 0 13.0658 0C12.0526 0 11.1316 0.84943 11.1316 1.90909Z" fill="#F8AB00"/>
<path d="M6.06579 8V13.9091C6.06579 15.2528 7.00411 16 8 16C8.92105 16 9.93421 15.3636 9.93421 13.9091V8.09091C9.93421 6.86079 9.01316 6.09091 8 6.09091C6.98684 6.09091 6.06579 6.94034 6.06579 8Z" fill="#E37300"/>
<path d="M4.86842 14.0909C4.86842 15.1449 4.00206 16 2.93421 16C1.86636 16 1 15.1449 1 14.0909C1 13.0369 1.86636 12.1818 2.93421 12.1818C4.00206 12.1818 4.86842 13.0369 4.86842 14.0909Z" fill="#E37300"/>
</svg>
