<svg xmlns="http://www.w3.org/2000/svg" width="46" height="29" fill="none" viewBox="0 0 46 29">
  <path fill="#3C4043" fill-rule="evenodd" d="M41.858.008H4.118L3.645.01c-.133.001-.265.003-.398.006-.288.008-.58.024-.864.075-.29.051-.56.135-.822.267a2.761 2.761 0 0 0-1.208 1.19 2.826 2.826 0 0 0-.27.809c-.053.28-.07.567-.077.851-.004.13-.006.26-.006.39L0 4.063V25.4c.001.13.003.26.007.39.007.284.024.571.076.852a2.716 2.716 0 0 0 1.48 2c.262.131.531.215.82.266.286.05.577.067.865.075.133.003.265.005.398.005l.471.001H42.33c.133-.001.265-.003.398-.006.288-.008.579-.025.865-.075a2.95 2.95 0 0 0 .821-.267 2.753 2.753 0 0 0 1.208-1.19c.134-.259.22-.524.27-.81.053-.28.07-.567.077-.85.004-.13.005-.26.006-.39l.001-.466V3.598c-.002-.13-.003-.26-.007-.391a5.54 5.54 0 0 0-.076-.851 2.732 2.732 0 0 0-1.479-2 2.949 2.949 0 0 0-.821-.266 5.849 5.849 0 0 0-.865-.075 21.499 21.499 0 0 0-.398-.006h-.471Z" clip-rule="evenodd"/>
  <path fill="#FFFFFE" fill-rule="evenodd" d="m41.857.941.465.001c.125.001.251.002.377.006.22.006.478.017.718.06.208.037.383.093.551.177a1.774 1.774 0 0 1 .958 1.307c.043.233.055.487.06.705a57.773 57.773 0 0 1 .007.827V25.32l-.006.368c-.006.217-.018.47-.062.706a1.848 1.848 0 0 1-.179.54 1.743 1.743 0 0 1-.78.766 1.94 1.94 0 0 1-.547.176 5.06 5.06 0 0 1-.715.06c-.127.003-.253.005-.383.005l-.464.001H3.65c-.127-.001-.253-.003-.376-.006a5.09 5.09 0 0 1-.717-.06 1.943 1.943 0 0 1-.552-.177 1.756 1.756 0 0 1-.778-.765 1.867 1.867 0 0 1-.18-.542 4.742 4.742 0 0 1-.06-.704 18.318 18.318 0 0 1-.006-.37V3.567c0-.124.002-.247.006-.37.006-.217.018-.47.061-.707.037-.204.094-.376.18-.54a1.744 1.744 0 0 1 .779-.766 1.95 1.95 0 0 1 .55-.176 4.97 4.97 0 0 1 .718-.06C3.4.944 3.526.943 3.65.942h38.206Z" clip-rule="evenodd"/>
  <path fill="#3C4043" d="M22.135 14.643v3.987h-1.31V8.788H24.3a3.175 3.175 0 0 1 2.246.855 2.772 2.772 0 0 1 0 4.16c-.61.557-1.359.84-2.246.84h-2.164Zm0-4.647v3.438h2.197c.488.016.96-.172 1.293-.51a1.689 1.689 0 0 0-.04-2.44 1.821 1.821 0 0 0-1.253-.488h-2.197ZM30.506 11.676c.968 0 1.733.251 2.295.746.561.494.838 1.185.838 2.056v4.153h-1.253v-.934h-.057c-.545.769-1.261 1.153-2.164 1.153-.765 0-1.416-.22-1.929-.659a2.051 2.051 0 0 1-.772-1.648c0-.699.276-1.248.821-1.664.545-.416 1.278-.62 2.189-.62.78 0 1.415.14 1.92.408v-.29c0-.432-.195-.84-.537-1.123a1.945 1.945 0 0 0-1.261-.463c-.732 0-1.31.298-1.733.895l-1.155-.699c.618-.871 1.554-1.31 2.798-1.31Zm-1.692 4.89c0 .33.163.636.431.824.293.22.651.338 1.017.33a2.12 2.12 0 0 0 1.473-.589c.431-.392.65-.855.65-1.389-.406-.314-.976-.47-1.708-.463-.529 0-.976.126-1.334.369-.35.243-.529.55-.529.918Z"/>
  <path fill="#3C4043" fill-rule="evenodd" d="m40.83 11.896-4.376 9.694h-1.35l1.626-3.391-2.872-6.303h1.424l2.075 4.835h.024l2.026-4.835h1.424Z" clip-rule="evenodd"/>
  <path fill="#4285F4" fill-rule="evenodd" d="M16.84 13.78c0-.385-.033-.77-.098-1.146h-5.524v2.174h3.165a2.613 2.613 0 0 1-1.172 1.719v1.413h1.887c1.107-.981 1.742-2.434 1.742-4.16Z" clip-rule="evenodd"/>
  <path fill="#34A853" fill-rule="evenodd" d="M11.218 19.305c1.578 0 2.912-.502 3.88-1.366l-1.887-1.413c-.529.346-1.204.542-1.993.542a3.493 3.493 0 0 1-3.287-2.331H5.986v1.46c.993 1.907 3.019 3.108 5.232 3.108Z" clip-rule="evenodd"/>
  <path fill="#FBBC04" fill-rule="evenodd" d="M7.93 14.737a3.296 3.296 0 0 1 0-2.166v-1.452H5.986a5.428 5.428 0 0 0 0 5.07l1.944-1.452Z" clip-rule="evenodd"/>
  <path fill="#EA4335" fill-rule="evenodd" d="M11.218 10.24a3.216 3.216 0 0 1 2.245.848L15.14 9.47a5.77 5.77 0 0 0-3.921-1.468c-2.213 0-4.24 1.209-5.232 3.116l1.945 1.46a3.49 3.49 0 0 1 3.287-2.34Z" clip-rule="evenodd"/>
</svg>