<svg xmlns="http://www.w3.org/2000/svg" width="53" height="20" fill="none" viewBox="0 0 53 20">
  <path fill="#fff" d="M24.698 9.776v5.869H22.77V1.157h5.113c1.234-.024 2.431.427 3.305 1.259 1.749 1.571 1.857 4.217.216 5.915l-.216.208c-.898.82-2 1.237-3.305 1.237h-3.185Zm0-6.84v5.06h3.233a2.569 2.569 0 0 0 1.904-.75 2.486 2.486 0 0 0-.06-3.594 2.68 2.68 0 0 0-1.844-.716h-3.233ZM37.02 5.408c1.425 0 2.55.37 3.377 1.097.826.728 1.233 1.745 1.233 3.027v6.112h-1.844V14.27h-.084c-.802 1.133-1.856 1.699-3.185 1.699-1.126 0-2.084-.324-2.838-.97a3.02 3.02 0 0 1-1.138-2.427c0-1.028.407-1.837 1.21-2.45.802-.612 1.88-.912 3.221-.912 1.15 0 2.084.208 2.826.6v-.427c0-.635-.287-1.236-.79-1.652a2.862 2.862 0 0 0-1.856-.682c-1.078 0-1.928.44-2.551 1.317l-1.7-1.028c.91-1.282 2.287-1.93 4.119-1.93Zm-2.491 7.198c0 .485.24.935.635 1.213a2.41 2.41 0 0 0 1.497.485c.814 0 1.592-.312 2.167-.867.635-.577.958-1.259.958-2.044-.599-.463-1.437-.694-2.515-.682-.778 0-1.437.185-1.964.543-.515.358-.778.809-.778 1.352Z"/>
  <path fill="#fff" fill-rule="evenodd" d="M52.217 5.732 45.774 20h-1.988l2.395-4.99-4.227-9.278h2.096l3.054 7.117h.035l2.982-7.117h2.096Z" clip-rule="evenodd"/>
  <path fill="#4285F4" fill-rule="evenodd" d="M16.902 8.504c0-.566-.048-1.133-.144-1.687H8.627v3.2h4.659a3.847 3.847 0 0 1-1.725 2.53v2.08h2.778c1.629-1.444 2.563-3.582 2.563-6.123Z" clip-rule="evenodd"/>
  <path fill="#34A853" fill-rule="evenodd" d="M8.625 16.637c2.323 0 4.287-.74 5.712-2.01l-2.778-2.08c-.778.509-1.772.797-2.934.797a5.142 5.142 0 0 1-4.838-3.43H.925v2.148c1.46 2.808 4.443 4.575 7.7 4.575Z" clip-rule="evenodd"/>
  <path fill="#FBBC04" fill-rule="evenodd" d="M3.787 9.914a4.852 4.852 0 0 1 0-3.19V4.588H.925a7.99 7.99 0 0 0 0 7.464l2.862-2.137Z" clip-rule="evenodd"/>
  <path fill="#EA4335" fill-rule="evenodd" d="M8.625 3.293a4.734 4.734 0 0 1 3.305 1.248l2.467-2.38A8.494 8.494 0 0 0 8.625.001C5.368 0 2.385 1.78.925 4.587l2.862 2.15a5.137 5.137 0 0 1 4.838-3.444Z" clip-rule="evenodd"/>
</svg>