<svg width="16" height="16" viewBox="0 0 16 16" fill="none" xmlns="http://www.w3.org/2000/svg">
<path fill-rule="evenodd" clip-rule="evenodd" d="M8.14942 1.79688C8.06077 1.73079 7.93923 1.73079 7.85058 1.79688L1.60058 6.45622C1.53729 6.50341 1.5 6.57771 1.5 6.65666V14.25C1.5 14.3881 1.61193 14.5 1.75 14.5H4.25C4.38807 14.5 4.5 14.3881 4.5 14.25V9.68128C4.5 8.71479 5.2835 7.93128 6.25 7.93128H9.75C10.7165 7.93128 11.5 8.71478 11.5 9.68128V14.25C11.5 14.3881 11.6119 14.5 11.75 14.5H14.25C14.3881 14.5 14.5 14.3881 14.5 14.25V6.65666C14.5 6.57771 14.4627 6.50341 14.3994 6.45622L8.14942 1.79688ZM6.95405 0.594286C7.57462 0.131657 8.42538 0.131657 9.04595 0.594286L15.2959 5.25363C15.739 5.58391 16 6.10405 16 6.65666V14.25C16 15.2165 15.2165 16 14.25 16H11.75C10.7835 16 10 15.2165 10 14.25V9.68128C10 9.54321 9.88807 9.43128 9.75 9.43128H6.25C6.11193 9.43128 6 9.54321 6 9.68128V14.25C6 15.2165 5.2165 16 4.25 16H1.75C0.783502 16 0 15.2165 0 14.25V6.65666C0 6.10405 0.261009 5.58391 0.70405 5.25363L6.95405 0.594286Z" fill="currentColor"/>
</svg>
