<svg width="16" height="16" viewBox="0 0 16 16" fill="none" xmlns="http://www.w3.org/2000/svg">
<path d="M9.04595 0.594286C8.42538 0.131657 7.57462 0.131657 6.95405 0.594286L0.70405 5.25363C0.261009 5.58391 0 6.10405 0 6.65666V14.25C0 15.2165 0.783501 16 1.75 16H4.25C5.2165 16 6 15.2165 6 14.25V9.68128C6 9.54321 6.11193 9.43128 6.25 9.43128H9.75C9.88807 9.43128 10 9.54321 10 9.68128V14.25C10 15.2165 10.7835 16 11.75 16H14.25C15.2165 16 16 15.2165 16 14.25V6.65666C16 6.10405 15.739 5.58391 15.2959 5.25363L9.04595 0.594286Z" fill="currentColor"/>
</svg>
