<svg width="32" height="32" viewBox="0 0 32 32" fill="none" xmlns="http://www.w3.org/2000/svg">
<path d="M1.00021 4.38475C1.00021 3.4871 1 1 1 1C1 1 3.48715 1.00016 4.3848 1.00016M4.3848 23C3.48715 23 1 23 1 23C1 23 1.00021 20.5131 1.00021 19.6154M19.6154 1.0002C20.5131 1.0002 23 1.00006 23 1.00006C23 1.00006 23 3.48715 23 4.38479M23 12.2821V9.46164M1.00021 14.5385V9.46164M9.46167 1.00016H14.5385M9.46167 23H12.2822M26.127 22.6406L29.502 19.6264C29.8842 19.2851 29.7715 18.6615 29.294 18.475L14.8446 12.8274C14.3197 12.6222 13.784 13.0996 13.9288 13.6434L17.9203 28.6301C18.0523 29.1255 18.6616 29.3074 19.0442 28.9657L22.4166 25.9542L26.0784 30.0398C26.5852 30.6052 27.4552 30.6536 28.0215 30.1478L29.681 28.6659C30.2473 28.1601 30.2956 27.2916 29.7888 26.7262L26.127 22.6406Z" stroke="#10110D" stroke-width="1.5" stroke-linecap="square"/>
</svg>
