<svg xmlns="http://www.w3.org/2000/svg" width="32" height="32" fill="none" viewBox="0 0 32 32">
  <path fill="#10110D" fill-rule="evenodd" d="M7.992 0h16.016A7.992 7.992 0 0 1 32 7.992v16.016A7.992 7.992 0 0 1 24.008 32H7.992A7.992 7.992 0 0 1 0 24.008V7.992A7.992 7.992 0 0 1 7.992 0ZM3.2 24.008A4.792 4.792 0 0 0 7.992 28.8h16.016a4.792 4.792 0 0 0 4.792-4.792V7.992A4.792 4.792 0 0 0 24.008 3.2H7.992A4.792 4.792 0 0 0 3.2 7.992v16.016ZM8 16a8 8 0 1 1 16 0 8 8 0 0 1-16 0Zm12.8 0a4.8 4.8 0 1 0-9.6 0 4.8 4.8 0 0 0 9.6 0ZM24 9.6a1.6 1.6 0 1 0 0-3.2 1.6 1.6 0 0 0 0 3.2Z" clip-rule="evenodd"/>
</svg>