<svg aria-hidden="false" aria-label="Klarna" focusable="false" role="img" width="23" height="23" viewBox="0 0 23 23">
  <path
    d="M15.8748198,0 L11.4341822,0 C11.4341822,3.63952897 9.76079554,6.98003496 6.84326711,9.16553506 L5.08394788,10.4830746 L11.9006135,19.7782745 L17.5053099,19.7782745 L11.2330694,11.2254093 C14.2061685,8.26470568 15.8748198,4.28172506 15.8748198,0"
    fill="rgba(255, 179, 199, 1)"
  />
  <path
    d="M0 19.7782745 4.54147255 19.7782745 4.54147255 0 0 0"
    fill="rgba(255, 179, 199, 1)"
  />
  <path
    d="M20.5152201,15.0295611 C19.142667,15.0295611 18.0300007,16.1422274 18.0300007,17.5147805 C18.0300007,18.8873337 19.142667,20 20.5152201,20 C21.8877733,20 23.0004396,18.8873337 23.0004396,17.5147805 C23.0004396,16.1422274 21.8877733,15.0295611 20.5152201,15.0295611 Z"
    fill="rgba(255, 179, 199, 1)"
  />
</svg>