<svg xmlns="http://www.w3.org/2000/svg" width="32" height="32" fill="none" viewBox="0 0 32 32">
  <path fill="#10110D" d="M31.841 12.12c-.444-2.344-1.706-3.803-2.999-4.707A7.981 7.981 0 0 0 24.272 6H1.125C.32 6 .012 6.786.008 7.18l.002.257s-.038 10.24.034 15.71c.219 3.229 3.454 3.228 3.454 3.228s10.562-.032 15.628-.063a2.95 2.95 0 0 0 .706-.085c2.884-.721 3.182-3.4 3.152-4.895 5.797.322 9.887-3.768 8.857-9.212Zm-14.738 4.678c-1.66 1.937-5.343 5.3-5.343 5.3s-.161.157-.413.03a1.256 1.256 0 0 1-.144-.12c-.591-.588-4.489-4.061-5.375-5.268-.945-1.286-1.387-3.597-.12-4.943 1.266-1.347 4.004-1.447 5.812.542 0 0 2.086-2.374 4.621-1.283 2.535 1.09 2.439 4.01.963 5.742Zm8.226.637c-1.236.154-2.24.038-2.24.038v-7.57h1.52c1.006 0 1.976.419 2.632 1.18.462.536.831 1.291.831 2.334 0 2.55-1.313 3.554-2.743 4.018Z"/>
</svg>