<svg xmlns="http://www.w3.org/2000/svg" width="16" height="17" viewBox="0 0 16 17" fill="none">
    <path d="M1.19582 7.47852H3.883V14.633H1.19582C1.04547 14.633 0.901269 14.5733 0.794951 14.467C0.688634 14.3606 0.628906 14.2165 0.628906 14.0661V8.04543C0.628906 7.89508 0.688634 7.75088 0.794951 7.64456C0.901269 7.53825 1.04547 7.47852 1.19582 7.47852Z" stroke="#6F6F69" stroke-linecap="round" stroke-linejoin="round"/>
    <path d="M3.88281 7.47891L6.76273 2.87556C6.87434 2.69362 7.03118 2.54368 7.21796 2.44035C7.40473 2.33703 7.6151 2.28385 7.82854 2.28598C7.99664 2.27991 8.16425 2.3076 8.32146 2.36742C8.47869 2.42723 8.62231 2.51795 8.74388 2.63423C8.86543 2.7505 8.96245 2.88995 9.02918 3.04436C9.09592 3.19876 9.13103 3.36498 9.13244 3.53319V6.83263H14.11C14.2939 6.83859 14.4744 6.88342 14.6398 6.96417C14.8052 7.04491 14.9516 7.15974 15.0694 7.30111C15.1872 7.44248 15.2737 7.60718 15.3233 7.78439C15.3729 7.9616 15.3845 8.1473 15.3572 8.32928L14.4501 14.1799C14.4115 14.4925 14.2598 14.7803 14.0239 14.9891C13.788 15.1979 13.4839 15.3133 13.1688 15.3137H5.73095C5.37688 15.3151 5.02741 15.2336 4.7105 15.0755L3.89415 14.6674" stroke="#6F6F69" stroke-linecap="round" stroke-linejoin="round"/>
    <path d="M3.88281 7.47852V14.6329" stroke="#6F6F69" stroke-linecap="round" stroke-linejoin="round"/>
</svg>
