<svg width="16" height="16" viewBox="0 0 16 16" fill="none" xmlns="http://www.w3.org/2000/svg">
<g id="Social / Linkedin">
<path id="Icon" d="M1.17188 0.5H14.8203C15.1438 0.496281 15.418 0.724588 15.4844 1.02734L15.5 1.16113V14.8457C15.4963 15.1665 15.2622 15.4356 14.9561 15.4951L14.8203 15.5078H1.17188C0.85194 15.5114 0.580342 15.2862 0.514648 14.9814L0.5 14.8457V1.16113C0.503845 0.836774 0.735342 0.570419 1.03809 0.511719L1.17188 0.5ZM10.793 5.30762C10.1497 5.29021 9.53208 5.47925 9.01855 5.8291V5.5H5.74414V14.1445H9.11523V9.86719C9.11523 9.3754 9.16479 8.99686 9.2998 8.75098C9.36076 8.64003 9.43666 8.56136 9.53516 8.50684C9.63666 8.45072 9.79279 8.40332 10.0371 8.40332C10.2612 8.40333 10.3847 8.45509 10.4561 8.50488C10.5282 8.55535 10.5913 8.63478 10.6426 8.76465C10.7568 9.05422 10.7666 9.45868 10.7666 9.92578V14.1367H14.1367V9.44434C14.1367 8.40383 14.0306 7.36789 13.5381 6.58691C13.0141 5.75614 12.1224 5.31098 10.8076 5.30762H10.793ZM1.87012 14.1367H4.74805V13.6367H5.24121V5.5H1.87012V14.1367ZM3.5625 1.7002C2.52361 1.70044 1.68555 2.53917 1.68555 3.57812C1.68569 4.61695 2.5237 5.45581 3.5625 5.45605C4.59236 5.45605 5.44028 4.61885 5.44043 3.57812C5.44043 2.53902 4.60161 1.7002 3.5625 1.7002Z" fill="#10110D" stroke="#10110D"/>
</g>
</svg>
