<svg width="16" height="16" viewBox="0 0 16 16" fill="none" xmlns="http://www.w3.org/2000/svg">
<path d="M15.9999 7.9674H5.75009M8.5 11.5L5 8L8.5 4.5M14.6816 11.2357C13.9476 12.7435 12.7275 13.9604 11.2177 14.6903C9.70788 15.4202 7.99634 15.6207 6.35874 15.2595C4.72113 14.8982 3.2528 13.9962 2.19024 12.6988C1.12768 11.4014 0.532768 9.78414 0.501314 8.10746C0.469861 6.43077 1.0037 4.7923 2.01685 3.45597C3.03 2.11963 4.46347 1.16323 6.08638 0.740798C7.70928 0.318371 9.42714 0.454517 10.9632 1.1273C12.4993 1.80009 13.7643 2.97036 14.5543 4.4496" stroke="#10110D"/>
</svg>
