<svg xmlns="http://www.w3.org/2000/svg" width="46" height="32" fill="none" viewBox="0 0 46 32">
  <path fill="#fff" d="M.5.5h45v31H.5z"/>
  <path fill="#FF5F00" d="M26.67 9.25h-8.253v13.22h8.254V9.25Z"/>
  <path fill="#EB001B" fill-rule="evenodd" d="M19.268 15.861a8.336 8.336 0 0 1 3.274-6.609c-3.515-2.709-8.562-2.314-11.595.907a8.289 8.289 0 0 0 0 11.407c3.033 3.221 8.08 3.616 11.595.907a8.335 8.335 0 0 1-3.274-6.612Z" clip-rule="evenodd"/>
  <path fill="#F79E1B" d="M35.694 21.839v-.907h.192v-.187h-.457v.187h.18v.907h.085Zm.887 0v-1.094h-.138l-.161.781-.162-.781h-.138v1.094h.1v-.829l.15.711h.103l.15-.71v.828h.096Z"/>
  <path fill="#F79E1B" fill-rule="evenodd" d="M36.412 15.862c0 3.219-1.874 6.155-4.826 7.561a8.71 8.71 0 0 1-9.044-.952 8.35 8.35 0 0 0 3.275-6.61 8.35 8.35 0 0 0-3.276-6.61 8.71 8.71 0 0 1 9.045-.954c2.952 1.407 4.826 4.343 4.826 7.562v.003Z" clip-rule="evenodd"/>
  <path stroke="#E3E2E1" d="M.5.5h45v31H.5z"/>
</svg>