<svg width="16" height="16" viewBox="0 0 16 16" fill="none" xmlns="http://www.w3.org/2000/svg">
<path fill-rule="evenodd" clip-rule="evenodd" d="M1.75 2.25C1.61193 2.25 1.5 2.36193 1.5 2.5V10.5674C1.5 10.706 1.61192 10.8174 1.74949 10.8174H3.00003C3.96656 10.8174 4.75 11.601 4.75 12.5674V13.7771C4.75 13.9927 5.00454 14.1072 5.16584 13.9642L8.21854 11.2579C8.53866 10.9741 8.95164 10.8174 9.37944 10.8174H14.25C14.3881 10.8174 14.5 10.7055 14.5 10.5674V2.50003C14.5 2.36196 14.3881 2.25003 14.25 2.25003L1.75 2.25ZM0 2.5C0 1.5335 0.783504 0.749997 1.75 0.75L14.25 0.750032C15.2165 0.750035 16 1.53354 16 2.50003V10.5674C16 11.5339 15.2165 12.3174 14.25 12.3174H9.37944C9.31832 12.3174 9.25933 12.3398 9.2136 12.3804L6.1609 15.0866C5.03181 16.0876 3.25 15.286 3.25 13.7771V12.5674C3.25 12.4293 3.13807 12.3174 3.00003 12.3174H1.74949C0.782502 12.3174 0 11.5334 0 10.5674V2.5Z" fill="currentColor"/>
</svg>