<svg width="32" height="32" viewBox="0 0 32 32" fill="none" xmlns="http://www.w3.org/2000/svg">
<path d="M15.9998 26V32M15.9998 26C18.4752 26 21.8492 25.0167 23.5995 23.2663C25.3498 21.516 26.3332 19.142 26.3332 16.6667V12.6667M15.9998 26C13.5245 26 10.1505 25.0167 8.40017 23.2663C6.64983 21.516 5.6665 19.142 5.6665 16.6667V12.6667M15.9998 1C14.5853 1 13.2288 1.5619 12.2286 2.5621C11.2284 3.56229 10.6665 4.91885 10.6665 6.33333V15.6667C10.6665 17.0812 11.2284 18.4377 12.2286 19.4379C13.2288 20.4381 14.5853 21 15.9998 21C17.4143 21 18.7709 20.4381 19.7711 19.4379C20.7713 18.4377 21.3332 17.0812 21.3332 15.6667V6.33333C21.3332 4.91885 20.7713 3.56229 19.7711 2.5621C18.7709 1.5619 17.4143 1 15.9998 1Z" stroke="#10110D" stroke-width="1.5" stroke-linejoin="round"/>
</svg>
