<svg width="16" height="16" viewBox="0 0 16 16" fill="none" xmlns="http://www.w3.org/2000/svg">
<path fill-rule="evenodd" clip-rule="evenodd" d="M2.5 1.75C2.5 0.783501 3.2835 0 4.25 0H11.75C12.7165 0 13.5 0.783502 13.5 1.75V14.25C13.5 15.2165 12.7165 16 11.75 16H4.25C3.2835 16 2.5 15.2165 2.5 14.25V1.75ZM4.25 1.5C4.11193 1.5 4 1.61193 4 1.75V14.25C4 14.3881 4.11193 14.5 4.25 14.5H11.75C11.8881 14.5 12 14.3881 12 14.25V1.75C12 1.61193 11.8881 1.5 11.75 1.5H4.25ZM6.575 11.6H9.425V13.1H6.575V11.6Z" fill="currentColor"/>
</svg>