<svg width="16" height="16" viewBox="0 0 16 16" fill="none" xmlns="http://www.w3.org/2000/svg">
<path fill-rule="evenodd" clip-rule="evenodd" d="M0 8C0 3.58172 3.58172 0 8 0C12.4183 0 16 3.58172 16 8C16 12.4183 12.4183 16 8 16C3.58172 16 0 12.4183 0 8ZM8 1.5C4.41015 1.5 1.5 4.41015 1.5 8C1.5 11.5899 4.41015 14.5 8 14.5C11.5899 14.5 14.5 11.5899 14.5 8C14.5 4.41015 11.5899 1.5 8 1.5ZM7.07667 4.15097H6.6305C6.06512 4.15097 5.52291 4.37556 5.12313 4.77534C4.72404 5.17443 4.49953 5.71546 4.49876 6.27978C4.49601 6.7065 4.62265 7.12405 4.862 7.47739C5.10191 7.83154 5.44374 8.10445 5.84222 8.25999C5.87184 8.27155 5.90217 8.28122 5.93302 8.28893L9.30276 9.13136C9.42562 9.18735 9.52766 9.28142 9.5934 9.4001C9.66521 9.52973 9.68916 9.68047 9.66107 9.82597C9.63298 9.97146 9.55464 10.1025 9.43974 10.196C9.32485 10.2896 9.18071 10.3398 9.03254 10.3379L5.24876 10.3378V11.8378H7.07664V12.6367H8.57664V11.8378H9.01838C9.51647 11.8431 10.0007 11.6737 10.387 11.3591C10.7747 11.0433 11.0391 10.6013 11.1339 10.1103C11.2287 9.61932 11.1478 9.11066 10.9055 8.67325C10.6632 8.23585 10.2749 7.89753 9.80839 7.71748C9.7796 7.70637 9.75016 7.69705 9.72023 7.68957L6.35235 6.8476C6.25211 6.80103 6.16614 6.72802 6.10388 6.63611C6.03443 6.5336 5.99777 6.4124 5.99874 6.28858L5.99876 6.2827C5.99876 6.11515 6.06532 5.95447 6.18379 5.836C6.30226 5.71752 6.46295 5.65097 6.6305 5.65097H10.4045V4.15097H8.57667V3.36H7.07667V4.15097Z" fill="currentColor"/>
</svg>
