<svg width="16" height="16" viewBox="0 0 16 16" fill="none" xmlns="http://www.w3.org/2000/svg">
<path fill-rule="evenodd" clip-rule="evenodd" d="M8 0C3.58172 0 0 3.58172 0 8C0 12.4183 3.58172 16 8 16C12.4183 16 16 12.4183 16 8C16 3.58172 12.4183 0 8 0ZM6.18379 5.8361C6.30226 5.71763 6.46295 5.65107 6.6305 5.65107H10.4045V4.15107H8.57667V3.36011H7.07667V4.15107H6.6305C6.06512 4.15107 5.52291 4.37567 5.12313 4.77544C4.72404 5.17453 4.49954 5.71556 4.49876 6.27987C4.49601 6.7066 4.62264 7.12416 4.862 7.47749C5.10191 7.83164 5.44374 8.10456 5.84222 8.26009C5.87184 8.27166 5.90217 8.28132 5.93302 8.28904L9.30275 9.13147C9.42562 9.18746 9.52765 9.28152 9.5934 9.40021C9.66521 9.52983 9.68916 9.68058 9.66107 9.82607C9.63298 9.97157 9.55464 10.1026 9.43974 10.1961C9.32485 10.2897 9.18071 10.3399 9.03254 10.338L5.24876 10.3379V11.8379H7.07664V12.6368H8.57664V11.8379H9.01839C9.51647 11.8432 10.0007 11.6738 10.387 11.3592C10.7747 11.0434 11.0391 10.6014 11.1339 10.1104C11.2287 9.61943 11.1478 9.11077 10.9055 8.67336C10.6632 8.23595 10.2749 7.89764 9.80839 7.71759C9.7796 7.70648 9.75016 7.69716 9.72023 7.68967L6.35235 6.8477C6.25211 6.80114 6.16614 6.72813 6.10388 6.63622C6.03443 6.5337 5.99777 6.41251 5.99874 6.28869L5.99876 6.28281C5.99876 6.11526 6.06532 5.95458 6.18379 5.8361Z" fill="currentColor"/>
</svg>
