<svg xmlns="http://www.w3.org/2000/svg" width="46" height="32" fill="none" viewBox="0 0 46 32">
  <path fill="#fff" d="M.5.5h45v31H.5z"/>
  <path fill="#283B82" d="M7.793 11.069H4.686a.435.435 0 0 0-.426.374l-1.257 8.182a.263.263 0 0 0 .256.307h1.484a.435.435 0 0 0 .426-.374l.34-2.207a.435.435 0 0 1 .425-.375h.984c2.047 0 3.228-1.017 3.536-3.033.14-.881.006-1.574-.396-2.06-.442-.532-1.225-.814-2.265-.814Zm.359 2.988c-.17 1.145-1.022 1.145-1.846 1.145h-.468l.329-2.138a.261.261 0 0 1 .255-.225h.215c.561 0 1.09 0 1.364.329.163.196.213.487.15.89ZM17.08 14.02h-1.487a.262.262 0 0 0-.256.225l-.066.427-.104-.155c-.322-.48-1.04-.64-1.757-.64-1.644 0-3.049 1.278-3.322 3.072-.142.895.06 1.75.554 2.347.454.55 1.102.778 1.874.778 1.325 0 2.06-.875 2.06-.875l-.067.424a.264.264 0 0 0 .256.308h1.34a.436.436 0 0 0 .426-.374l.804-5.23a.263.263 0 0 0-.255-.307Zm-2.073 2.974c-.144.873-.819 1.459-1.679 1.459-.432 0-.777-.142-.999-.412-.22-.268-.304-.649-.234-1.074.134-.865.82-1.47 1.668-1.47.422 0 .766.144.992.416.227.275.317.658.252 1.081ZM25.005 14.02H23.51a.43.43 0 0 0-.358.195l-2.062 3.12-.874-2.998a.435.435 0 0 0-.414-.317h-1.47a.265.265 0 0 0-.245.352l1.646 4.963-1.548 2.245c-.122.177.001.42.212.42h1.493a.428.428 0 0 0 .355-.19l4.972-7.372c.12-.176-.003-.418-.212-.418Z"/>
  <path fill="#469BDB" d="M29.954 11.069h-3.107a.435.435 0 0 0-.426.374l-1.257 8.182a.263.263 0 0 0 .256.307h1.594a.305.305 0 0 0 .298-.262l.357-2.32a.435.435 0 0 1 .426-.374h.983c2.047 0 3.228-1.017 3.537-3.033.14-.881.005-1.574-.397-2.06-.44-.532-1.224-.814-2.264-.814Zm.359 2.988c-.17 1.145-1.021 1.145-1.845 1.145h-.469l.33-2.138a.26.26 0 0 1 .255-.225h.215c.56 0 1.09 0 1.364.329.163.196.212.487.15.89ZM39.241 14.02h-1.487a.26.26 0 0 0-.255.225l-.066.427-.104-.155c-.322-.48-1.04-.64-1.757-.64-1.644 0-3.048 1.278-3.322 3.072-.141.895.06 1.75.554 2.347.455.55 1.102.778 1.874.778 1.325 0 2.06-.875 2.06-.875l-.067.424a.264.264 0 0 0 .257.308h1.34a.435.435 0 0 0 .425-.374l.805-5.23a.264.264 0 0 0-.257-.307Zm-2.074 2.974c-.142.873-.818 1.459-1.678 1.459-.431 0-.778-.142-1-.412-.22-.268-.302-.649-.233-1.074.135-.865.82-1.47 1.667-1.47.423 0 .766.144.993.416.227.275.317.658.251 1.081ZM40.995 11.293l-1.275 8.332a.263.263 0 0 0 .255.307h1.282a.435.435 0 0 0 .427-.374l1.258-8.182a.264.264 0 0 0-.256-.308h-1.435a.262.262 0 0 0-.256.225Z"/>
  <path stroke="#E3E2E1" d="M.5.5h45v31H.5z"/>
</svg>