<svg width="32" height="32" viewBox="0 0 32 32" fill="none"
    xmlns="http://www.w3.org/2000/svg">
    <path d="M12.0267 9.72646C12.6175 9.1346 12.9493 8.3325 12.9493 7.49624C12.9493 6.65997 12.6175 5.85787 12.0267 5.26602L8.6803 1.92376C8.0888 1.33228 7.28657 1 6.45008 1C5.61359 1 4.81136 1.33228 4.21986 1.92376L2.38578 3.7592C1.61409 4.52967 1.13283 5.54346 1.02371 6.62845C0.91459 7.71344 1.18433 8.80276 1.78714 9.71146C7.18835 17.8413 14.1582 24.8111 22.288 30.2123C23.197 30.8143 24.2861 31.0838 25.371 30.9752C26.4558 30.8666 27.4699 30.3866 28.2416 29.6164L30.0757 27.7809C30.3687 27.4881 30.6012 27.1405 30.7598 26.7578C30.9184 26.3751 31 25.965 31 25.5507C31 25.1365 30.9184 24.7263 30.7598 24.3436C30.6012 23.961 30.3687 23.6133 30.0757 23.3205L26.7307 19.9755C26.4379 19.6825 26.0902 19.45 25.7076 19.2914C25.3249 19.1328 24.9147 19.0512 24.5005 19.0512C24.0862 19.0512 23.6761 19.1328 23.2934 19.2914C22.9107 19.45 22.563 19.6825 22.2703 19.9755L21.1548 21.091C17.4169 18.0149 13.9863 14.5834 10.9112 10.8446L12.0267 9.72646Z" stroke="#10110D" stroke-width="1.5" stroke-linecap="round" stroke-linejoin="round"/>
</svg>
