<svg xmlns="http://www.w3.org/2000/svg" width="16" height="16" viewBox="0 0 16 16" fill="none">
<path fill-rule="evenodd" clip-rule="evenodd" d="M0 1.75C0 0.783501 0.783502 0 1.75 0H14.25C15.2165 0 16 0.783502 16 1.75V14.25C16 15.2165 15.2165 16 14.25 16H1.75C0.783501 16 0 15.2165 0 14.25V1.75ZM1.75 1.5C1.61193 1.5 1.5 1.61193 1.5 1.75V14.25C1.5 14.3881 1.61193 14.5 1.75 14.5H14.25C14.3881 14.5 14.5 14.3881 14.5 14.25V1.75C14.5 1.61193 14.3881 1.5 14.25 1.5H1.75ZM7.48316 7.24309C8.15924 6.12881 9.7725 6.11812 10.4633 7.22335L12.1909 9.98748C12.9194 11.1531 12.0815 12.665 10.7069 12.665H5.19864C3.82332 12.665 2.98549 11.1515 3.71558 9.98599L4.93861 8.03357C5.42962 7.24972 6.51917 7.15427 7.14177 7.80574L7.48316 7.24309ZM9.1913 8.01836C9.09261 7.86047 8.86215 7.862 8.76556 8.02118L8.35643 8.69549C7.87191 9.49406 6.76931 9.59784 6.14144 8.93898L4.98677 10.7823C4.88247 10.9488 5.00216 11.165 5.19864 11.165H10.7069C10.9033 11.165 11.023 10.949 10.9189 10.7825L9.1913 8.01836Z" fill="currentColor"/>
<path d="M4 4.5C4 4.22222 4.22222 4 4.5 4C4.77778 4 5 4.22222 5 4.5C5 4.77778 4.77778 5 4.5 5C4.22222 5 4 4.77778 4 4.5Z" fill="currentColor"/>
<path fill-rule="evenodd" clip-rule="evenodd" d="M3.25 4.5C3.25 3.80801 3.80801 3.25 4.5 3.25C5.19199 3.25 5.75 3.80801 5.75 4.5C5.75 5.19199 5.19199 5.75 4.5 5.75C3.80801 5.75 3.25 5.19199 3.25 4.5ZM4.5 4.75C4.63644 4.75 4.75 4.63644 4.75 4.5C4.75 4.36356 4.63644 4.25 4.5 4.25C4.36356 4.25 4.25 4.36356 4.25 4.5C4.25 4.63644 4.36356 4.75 4.5 4.75Z" fill="currentColor"/>
</svg>
