<svg width="32" height="32" viewBox="0 0 32 32" fill="none"
  xmlns="http://www.w3.org/2000/svg">
  <path d="M17.1371 0C8.40361 0 4 6.26106 4 11.4814C4 14.6425 5.19656 17.4572 7.76359 18.5035C8.18517 18.676 8.56222 18.5091 8.68327 18.0444C8.76953 17.723 8.96989 16.909 9.05893 16.5681C9.18137 16.1076 9.13546 15.9476 8.79458 15.5441C8.05438 14.6731 7.58133 13.542 7.58133 11.9405C7.58133 7.29483 11.0569 3.13609 16.632 3.13609C21.5685 3.13609 24.2803 6.15253 24.2803 10.1791C24.2803 15.4787 21.9345 19.9519 18.4519 19.9519C16.5291 19.9519 15.0904 18.363 15.551 16.4109C16.1033 14.0804 17.1747 11.569 17.1747 9.8883C17.1747 8.38425 16.3677 7.12926 14.6953 7.12926C12.7293 7.12926 11.1501 9.16201 11.1501 11.8877C11.1501 13.6227 11.7373 14.7956 11.7373 14.7956C11.7373 14.7956 9.72678 23.319 9.37338 24.8119C8.67075 27.7852 9.26764 31.4291 9.31773 31.7964C9.34694 32.0149 9.62939 32.0677 9.75461 31.905C9.93548 31.667 12.2771 28.7744 13.073 25.8874C13.2984 25.0679 14.3655 20.834 14.3655 20.834C15.0042 22.0528 16.8713 23.1242 18.8568 23.1242C24.7658 23.1242 28.7743 17.7383 28.7743 10.5283C28.7729 5.07841 24.1564 0 17.1371 0Z" fill="currentColor"/>
</svg>