<svg xmlns="http://www.w3.org/2000/svg" width="16" height="16" viewBox="0 0 16 16" fill="none">
<path fill-rule="evenodd" clip-rule="evenodd" d="M6.55651e-07 0H1.5L1.5 2.26772C1.58165 2.25604 1.66512 2.25 1.75 2.25H10.8667C11.8332 2.25 12.6167 3.0335 12.6167 4V5.5C12.6167 5.58488 12.6106 5.66835 12.5989 5.75H14.25C15.2165 5.75 16 6.5335 16 7.5V9C16 9.9665 15.2165 10.75 14.25 10.75H9.21561C9.22729 10.8317 9.23333 10.9151 9.23333 11V12.5C9.23333 13.4665 8.44983 14.25 7.48333 14.25H1.75C1.66512 14.25 1.58165 14.244 1.5 14.2323V16H0L6.55651e-07 0ZM1.5 12.5C1.5 12.6381 1.61193 12.75 1.75 12.75H7.48333C7.6214 12.75 7.73333 12.6381 7.73333 12.5V11C7.73333 10.8619 7.6214 10.75 7.48333 10.75H1.5L1.5 12.5ZM1.5 9.25H14.25C14.3881 9.25 14.5 9.13807 14.5 9V7.5C14.5 7.36193 14.3881 7.25 14.25 7.25H1.5L1.5 9.25ZM1.5 5.75H10.8667C11.0047 5.75 11.1167 5.63807 11.1167 5.5V4C11.1167 3.86193 11.0047 3.75 10.8667 3.75H1.75C1.61193 3.75 1.5 3.86193 1.5 4L1.5 5.75Z" fill="currentColor"/>
</svg>
