<svg xmlns="http://www.w3.org/2000/svg" width="32" height="32" fill="none" viewBox="0 0 32 32">
  <path fill="#10110D" fill-rule="evenodd" d="M32 16c0 8.837-7.163 16-16 16S0 24.837 0 16 7.163 0 16 0s16 7.163 16 16ZM17.111 5.48a.529.529 0 0 0-.233.329l-1.469 6.364c-2.49.066-4.903.885-6.92 2.348a2.528 2.528 0 0 0-3.862.31 2.612 2.612 0 0 0 1.042 3.726A6.096 6.096 0 0 0 8.28 24.27 12.92 12.92 0 0 0 16 26.6c2.756.067 5.46-.749 7.72-2.328a6.096 6.096 0 0 0 2.611-5.714 2.612 2.612 0 0 0 1.042-3.732 2.516 2.516 0 0 0-3.863-.304 12.332 12.332 0 0 0-7.105-2.351l1.329-5.714 3.918.868a1.71 1.71 0 1 0 .18-.957l-4.323-.956a.529.529 0 0 0-.398.069Zm1.492 13.503a1.73 1.73 0 1 1 2.878-1.923 1.73 1.73 0 0 1-2.878 1.923Zm1.883 3.569a.399.399 0 0 1-.114.24 7.4 7.4 0 0 1-8.744 0 .398.398 0 0 1 .424-.653 6.746 6.746 0 0 0 7.896 0 .399.399 0 0 1 .538.413Zm-9.967-3.57a1.731 1.731 0 1 1 2.879-1.922 1.731 1.731 0 0 1-2.88 1.923Z" clip-rule="evenodd"/>
</svg>