<svg width="16" height="16" viewBox="0 0 16 16" fill="none" xmlns="http://www.w3.org/2000/svg">
<path fill-rule="evenodd" clip-rule="evenodd" d="M13.394 1.10969C14.5551 0.557703 16 1.3733 16 2.72658V11.1274C16 12.4806 14.5551 13.2962 13.394 12.7442C11.686 11.9322 8.89725 10.8013 6.35009 10.5998V15H4.85009V10.5684H1.74938C0.782155 10.5684 2.05056e-05 9.78419 6.10367e-05 8.81834L6.43746e-05 5.03563C2.62872e-05 4.07007 0.781626 3.28561 1.74904 3.28557L5.58341 3.2855C8.32005 3.2855 11.5127 2.0041 13.394 1.10969ZM6.35009 9.09585C9.23591 9.29691 12.2914 10.5592 14.0381 11.3895C14.1367 11.4364 14.2532 11.4292 14.3542 11.3679C14.453 11.308 14.5 11.2204 14.5 11.1274V2.72658C14.5 2.63353 14.453 2.54593 14.3542 2.48602C14.2532 2.42473 14.1367 2.41752 14.0381 2.46439C12.2914 3.29478 9.23591 4.55702 6.35009 4.75808V9.09585ZM4.85009 4.78551V9.06844H1.74938C1.61198 9.06844 1.50006 8.95717 1.50006 8.8184L1.50006 5.03557C1.50006 4.89658 1.61196 4.78558 1.74909 4.78557L4.85009 4.78551Z" fill="currentColor"/>
</svg>