<svg width="16" height="16" viewBox="0 0 16 16" fill="none" xmlns="http://www.w3.org/2000/svg">
<path fill-rule="evenodd" clip-rule="evenodd" d="M7.14731 0.36665C7.67713 0.0711552 8.3222 0.0711417 8.85204 0.366615L14.8653 3.71999C15.1028 3.85244 15.25 4.10308 15.25 4.37502V11.0377C15.25 11.6722 14.9065 12.257 14.3524 12.5661L8.3653 15.905C8.13823 16.0317 7.86177 16.0317 7.6347 15.905L1.64763 12.5661C1.09346 12.257 0.75 11.6722 0.75 11.0377V4.37502C0.75 4.10309 0.897193 3.85246 1.13469 3.72001L7.14731 0.36665ZM8.12147 1.67668C8.04578 1.63447 7.95362 1.63447 7.87793 1.67668L3.0398 4.37501L8 7.14127L12.9601 4.37504L8.12147 1.67668ZM13.75 5.65204L8.75 8.4405V13.973L13.6218 11.2561C13.7009 11.2119 13.75 11.1284 13.75 11.0377V5.65204ZM7.25 13.973V8.4405L2.25 5.65204V11.0377C2.25 11.1284 2.29907 11.2119 2.37823 11.2561L7.25 13.973Z" fill="currentColor"/>
</svg>