<svg width="16" height="16" viewBox="0 0 16 16" fill="none" xmlns="http://www.w3.org/2000/svg">
<path fill-rule="evenodd" clip-rule="evenodd" d="M8 1.5C7.19953 1.5 6.44361 1.79198 5.89584 2.29392C5.35026 2.79384 5.0577 3.45713 5.0577 4.13333V5.8H10.9423V4.13333C10.9423 3.45713 10.6498 2.79384 10.1042 2.29392C9.5564 1.79198 8.80048 1.5 8 1.5ZM12.4423 5.8V4.13333C12.4423 3.0149 11.9569 1.95707 11.1175 1.18799C10.2804 0.420933 9.15805 0 8 0C6.84196 0 5.71957 0.420933 4.88246 1.18799C4.04315 1.95707 3.5577 3.0149 3.5577 4.13333V5.8H3.00002C2.03351 5.8 1.25 6.58351 1.25002 7.55002L1.25009 14.25C1.2501 15.2165 2.0336 16 3.00009 16H13C13.9665 16 14.75 15.2165 14.75 14.25V7.55C14.75 6.5835 13.9665 5.8 13 5.8H12.4423ZM3.00002 7.3C2.86194 7.3 2.75001 7.41193 2.75002 7.55L2.75009 14.25C2.75009 14.3881 2.86202 14.5 3.00009 14.5H13C13.1381 14.5 13.25 14.3881 13.25 14.25V7.55C13.25 7.41193 13.1381 7.3 13 7.3H3.00002ZM7.40866 12.0932V9.4349H8.90866V12.0932H7.40866Z" fill="currentColor"/>
</svg>