<svg width="16" height="16" viewBox="0 0 16 16" fill="none" xmlns="http://www.w3.org/2000/svg">
<path fill-rule="evenodd" clip-rule="evenodd" d="M5.0577 4.13333C5.0577 3.45713 5.35026 2.79384 5.89584 2.29392C6.44361 1.79198 7.19953 1.5 8 1.5C8.80048 1.5 9.5564 1.79198 10.1042 2.29392C10.6498 2.79384 10.9423 3.45713 10.9423 4.13333V5.8H5.0577V4.13333ZM3.5577 5.8V4.13333C3.5577 3.0149 4.04315 1.95707 4.88246 1.18799C5.71957 0.420933 6.84196 0 8 0C9.15805 0 10.2804 0.420933 11.1175 1.18799C11.9569 1.95707 12.4423 3.0149 12.4423 4.13333V5.8H13C13.9665 5.8 14.75 6.5835 14.75 7.55V14.25C14.75 15.2165 13.9665 16 13 16H3.00009C2.0336 16 1.2501 15.2165 1.25009 14.25L1.25002 7.55002C1.25 6.58351 2.03351 5.8 3.00002 5.8H3.5577ZM7.40866 9.4349V12.0932H8.90866V9.4349H7.40866Z" fill="currentColor"/>
</svg>