<svg width="16" height="16" viewBox="0 0 16 16" fill="none" xmlns="http://www.w3.org/2000/svg">
<path fill-rule="evenodd" clip-rule="evenodd" d="M11.1667 3.92628V3.37979C11.1667 2.41305 10.3828 1.62988 9.4165 1.62988L1.75002 1.6299C0.783809 1.62996 2.11e-05 2.41311 6.31809e-06 3.37976L0 10.9607C4.59552e-05 11.9271 0.78369 12.7107 1.75015 12.7107H2.09642C2.40997 13.6682 3.30745 14.3623 4.3706 14.3623C5.43379 14.3623 6.3313 13.6681 6.64481 12.7106H8.90126C9.20949 13.6772 10.1115 14.3799 11.1811 14.3799C12.2508 14.3799 13.1528 13.6772 13.461 12.7106H14.5909C15.3691 12.7106 16 12.0798 16 11.3016V6.61952C16 5.13561 14.8018 3.92629 13.3164 3.92628H11.1667ZM4.3706 11.0589C3.88082 11.0589 3.47726 11.459 3.47726 11.9606C3.47726 12.4622 3.88082 12.8623 4.3706 12.8623C4.86037 12.8623 5.26393 12.4622 5.26393 11.9606C5.26393 11.459 4.86037 11.0589 4.3706 11.0589ZM11.1811 11.0764C10.6914 11.0764 10.2878 11.4765 10.2878 11.9782C10.2878 12.4798 10.6914 12.8799 11.1811 12.8799C11.6709 12.8799 12.0745 12.4798 12.0745 11.9782C12.0745 11.4765 11.6709 11.0764 11.1811 11.0764Z" fill="currentColor"/>
</svg>