<svg width="16" height="16" viewBox="0 0 16 16" fill="none" xmlns="http://www.w3.org/2000/svg">
<path fill-rule="evenodd" clip-rule="evenodd" d="M1.75011 3.13002C1.61184 3.13003 1.50001 3.24208 1.50001 3.37991L1.5 10.9607C1.50001 11.0988 1.61209 11.2109 1.75015 11.2109H2.09634C2.40981 10.2533 3.30736 9.55899 4.3706 9.55899C5.43379 9.55899 6.3313 10.2532 6.64481 11.2107H8.91276C9.23144 10.2623 10.1245 9.57655 11.1811 9.57655C12.2378 9.57655 13.1309 10.2623 13.4495 11.2107H14.5V6.61964C14.5 5.9572 13.9664 5.42641 13.3164 5.4264H11.1667V7.32624H9.66666V3.37992C9.66666 3.24209 9.55481 3.13 9.4165 3.13L1.75011 3.13002ZM11.1667 3.9264V3.37992C11.1667 2.41317 10.3828 1.63 9.4165 1.63L1.75002 1.63002C0.783809 1.63008 2.11e-05 2.41323 6.31809e-06 3.37988L0 10.9608C4.59552e-05 11.9272 0.78369 12.7109 1.75015 12.7109H2.09642C2.40997 13.6683 3.30745 14.3625 4.3706 14.3625C5.43379 14.3625 6.3313 13.6682 6.64481 12.7107H8.90126C9.20949 13.6773 10.1115 14.38 11.1811 14.38C12.2508 14.38 13.1528 13.6773 13.461 12.7107H14.5909C15.3691 12.7107 16 12.0799 16 11.3017V6.61964C16 5.13573 14.8018 3.92641 13.3164 3.9264H11.1667ZM4.3706 11.059C3.88082 11.059 3.47726 11.4591 3.47726 11.9607C3.47726 12.4624 3.88082 12.8625 4.3706 12.8625C4.86037 12.8625 5.26393 12.4624 5.26393 11.9607C5.26393 11.4591 4.86037 11.059 4.3706 11.059ZM11.1811 11.0766C10.6914 11.0766 10.2878 11.4767 10.2878 11.9783C10.2878 12.4799 10.6914 12.88 11.1811 12.88C11.6709 12.88 12.0745 12.4799 12.0745 11.9783C12.0745 11.4767 11.6709 11.0766 11.1811 11.0766Z" fill="currentColor"/>
</svg>