<svg xmlns="http://www.w3.org/2000/svg" width="32" height="32" fill="none" viewBox="0 0 32 32">
  <path fill="#10110D" d="M7.772 6.11c-.8 1.793-.484 5.003-.356 7.249-.864.478-1.974-.362-2.602-.362-.653 0-1.433.43-1.556 1.07-.088.461.119 1.133 1.602 1.718.573.227 1.937.494 2.253 1.238.444 1.045-2.28 5.87-6.557 6.574A.663.663 0 0 0 0 24.29c.075 1.3 2.99 1.81 4.281 2.01.132.178.239.933.408 1.508.076.257.272.565.776.565.658 0 1.75-.507 3.651-.192 1.864.31 3.616 2.953 6.98 2.953 3.127 0 4.992-2.654 6.787-2.953 1.038-.172 1.93-.117 2.928.077.686.135 1.302.21 1.498-.465.172-.583.278-1.323.407-1.497 1.28-.199 4.208-.707 4.281-2.007a.664.664 0 0 0-.554-.692c-4.206-.693-7.012-5.504-6.558-6.575.315-.742 1.67-1.006 2.254-1.237 1.085-.428 1.629-.955 1.617-1.564-.015-.78-.953-1.245-1.644-1.245-.703 0-1.712.832-2.53.381.129-2.264.443-5.46-.355-7.25C22.714 2.714 19.348 1 15.982 1c-3.344 0-6.685 1.69-8.21 5.11Z"/>
</svg>