<svg width="32" height="32" viewBox="0 0 32 32" fill="none"
    xmlns="http://www.w3.org/2000/svg">
    <path d="M27.5569 14.7791C27.2486 14.7791 26.9443 14.8098 26.6466 14.8725C25.97 11.4731 23.011 9 19.4621 9C18.5639 9 17.6456 9.17217 16.8101 9.4965C16.6166 9.5699 16.0254 9.79546 16.016 10.5642V22.5549C16.0227 23.1515 16.4992 23.648 17.0771 23.6613C17.336 23.6667 26.5118 23.6667 27.5569 23.6667C30.006 23.6667 32 21.6727 32 19.2236C32.0013 16.7731 30.0073 14.7791 27.5569 14.7791Z" fill="currentColor"/>
    <path d="M14.014 10.3053C13.6456 10.3053 13.3467 10.6043 13.3467 10.9727V22.9927C13.3467 23.3611 13.6456 23.66 14.014 23.66C14.3824 23.66 14.6813 23.3611 14.6813 22.9927V10.9727C14.6813 10.6043 14.3824 10.3053 14.014 10.3053Z" fill="currentColor"/>
    <path d="M11.3447 11.64C10.9763 11.64 10.6773 11.939 10.6773 12.3073V22.9927C10.6773 23.3611 10.9763 23.66 11.3447 23.66C11.713 23.66 12.012 23.3611 12.012 22.9927V12.3073C12.012 11.939 11.713 11.64 11.3447 11.64Z" fill="currentColor"/>
    <path d="M8.67534 12.3073C8.30697 12.3073 8.00801 12.6063 8.00801 12.9747V22.9927C8.00801 23.3611 8.30697 23.66 8.67534 23.66C9.04371 23.66 9.34268 23.3611 9.34268 22.9927V12.9747C9.34268 12.6063 9.04371 12.3073 8.67534 12.3073Z" fill="currentColor"/>
    <path d="M6.00601 14.9767C5.63764 14.9767 5.33867 15.2756 5.33867 15.644V22.9927C5.33867 23.3611 5.63764 23.66 6.00601 23.66C6.37437 23.66 6.67334 23.3611 6.67334 22.9927V15.644C6.67334 15.2756 6.37437 14.9767 6.00601 14.9767Z" fill="currentColor"/>
    <path d="M3.33667 14.9767C2.9683 14.9767 2.66934 15.2756 2.66934 15.644V22.9927C2.66934 23.3611 2.9683 23.66 3.33667 23.66C3.70504 23.66 4.004 23.3611 4.004 22.9927V15.644C4.004 15.2756 3.70504 14.9767 3.33667 14.9767Z" fill="currentColor"/>
    <path d="M0.667334 16.3153C0.298966 16.3153 0 16.6142 0 16.9826V22.3093C0 22.679 0.298966 22.9766 0.667334 22.9766C1.0357 22.9766 1.33467 22.679 1.33467 22.3093V16.9826C1.33467 16.6142 1.0357 16.3153 0.667334 16.3153Z" fill="currentColor"/>
</svg>