<svg xmlns="http://www.w3.org/2000/svg" width="32" height="32" fill="none" viewBox="0 0 32 32">
  <path fill="#10110D" d="M16 .241C7.299.241.244 7.296.244 16c0 8.704 7.055 15.759 15.758 15.759s15.758-7.055 15.758-15.759C31.76 7.296 24.704.241 16.001.241Zm7.227 22.73a.982.982 0 0 1-1.351.328c-3.702-2.262-8.36-2.772-13.845-1.519a.981.981 0 1 1-.437-1.914c6.004-1.371 11.152-.78 15.307 1.756a.98.98 0 0 1 .326 1.35Zm1.929-4.29a1.229 1.229 0 0 1-1.69.405c-4.234-2.603-10.692-3.358-15.704-1.837a1.231 1.231 0 0 1-1.533-.819 1.23 1.23 0 0 1 .818-1.531c5.725-1.737 12.84-.896 17.702 2.094.58.354.76 1.11.407 1.688Zm.165-4.47c-5.079-3.016-13.458-3.293-18.308-1.82a1.474 1.474 0 1 1-.856-2.822c5.566-1.69 14.821-1.362 20.668 2.108a1.473 1.473 0 1 1-1.504 2.535Z"/>
</svg>