<svg width="16" height="16" viewBox="0 0 16 16" fill="none" xmlns="http://www.w3.org/2000/svg">
<path fill-rule="evenodd" clip-rule="evenodd" d="M7.29675 0.738233C7.55452 0.109055 8.44553 0.109076 8.70329 0.738233L10.5359 5.21135L15.2872 5.59805C15.9579 5.65263 16.2319 6.48752 15.7243 6.92903L12.0961 10.0841L13.2054 14.8049C13.3603 15.4642 12.6406 15.9816 12.065 15.6247L8.00002 13.104L3.93505 15.6247C3.35949 15.9815 2.63977 15.4642 2.79468 14.8049L3.90389 10.0841L0.275788 6.92903C-0.231957 6.48747 0.042259 5.65263 0.712854 5.59805L5.46414 5.21135L7.29675 0.738233ZM8.00002 2.97829L6.68002 6.2002C6.57155 6.46497 6.32357 6.64636 6.03841 6.66957L2.58638 6.95053L5.22512 9.24526C5.43795 9.43034 5.53076 9.71804 5.46626 9.99258L4.66381 13.4078L7.59951 11.5874C7.84484 11.4353 8.15519 11.4353 8.40053 11.5874L11.3362 13.4078L10.5338 9.99258C10.4693 9.71801 10.5621 9.43032 10.7749 9.24526L13.4137 6.95053L9.96163 6.66957C9.67644 6.64636 9.42848 6.46494 9.32001 6.2002L8.00002 2.97829Z" fill="currentColor"/>
</svg>
