<svg xmlns="http://www.w3.org/2000/svg" width="17" height="16" viewBox="0 0 17 16" fill="none">
<path fill-rule="evenodd" clip-rule="evenodd" d="M1.12702 4.34669C1.66534 3.38825 2.40726 2.55424 3.30014 1.89624L4.19001 3.10377C3.46487 3.63815 2.86684 4.31213 2.43485 5.08126C1.93012 5.97989 1.66696 6.98173 1.66663 7.99778C1.6663 9.01383 1.92881 10.0159 2.43297 10.915C2.8651 11.6856 3.46384 12.3609 4.19009 12.8962L3.30006 14.1036C2.40587 13.4445 1.66312 12.6089 1.12464 11.6486C0.496098 10.5278 0.166212 9.27324 0.166626 7.9973C0.16704 6.72135 0.497741 5.46707 1.12702 4.34669ZM13.8984 5.08132C13.4664 4.3122 12.8684 3.63822 12.1432 3.10383L13.0331 1.89631C13.926 2.5543 14.6679 3.38832 15.2062 4.34676C15.8355 5.46714 16.1662 6.72142 16.1666 7.99736C16.167 9.2733 15.8372 10.5278 15.2086 11.6487C14.6701 12.6089 13.9274 13.4446 13.0332 14.1037L12.1432 12.8963C12.8694 12.361 13.4681 11.6856 13.9003 10.915C14.4044 10.016 14.667 9.0139 14.6666 7.99785C14.6663 6.9818 14.4031 5.97995 13.8984 5.08132ZM3.85737 5.36847C4.17258 4.88607 4.56985 4.46331 5.02881 4.11594L5.93404 5.312C5.60986 5.55736 5.33205 5.85385 5.11307 6.18897C4.75669 6.73439 4.5696 7.3614 4.56963 7.99876C4.56967 8.63613 4.75682 9.26319 5.11329 9.80868C5.33182 10.1431 5.60893 10.439 5.93221 10.6841L5.02604 11.8795C4.56837 11.5325 4.17216 11.1106 3.85763 10.6292C3.34395 9.84317 3.06968 8.93164 3.06964 7.99884C3.06959 7.06605 3.34376 6.15452 3.85737 5.36847ZM11.2202 6.18903C11.0012 5.85391 10.7234 5.55742 10.3992 5.31207L11.3044 4.11601C11.7634 4.46337 12.1607 4.88613 12.4759 5.36854C12.9895 6.15458 13.2637 7.06611 13.2636 7.99891C13.2636 8.93171 12.9893 9.84324 12.4756 10.6293C12.1611 11.1106 11.7649 11.5326 11.3072 11.8795L10.401 10.6842C10.7243 10.4391 11.0014 10.1431 11.22 9.80874C11.5764 9.26325 11.7636 8.63619 11.7636 7.99883C11.7637 7.36147 11.5766 6.73445 11.2202 6.18903ZM8.67281 7.56126C8.39663 7.29712 7.93548 7.29707 7.65915 7.56137C7.40166 7.80764 7.40173 8.19236 7.65904 8.43847C7.93522 8.70262 8.39637 8.70266 8.6727 8.43837C8.93019 8.1921 8.93013 7.80737 8.67281 7.56126ZM6.62237 6.47736C7.47852 5.6585 8.8534 5.65836 9.70959 6.47725C10.5846 7.31418 10.5845 8.6855 9.70949 9.52238C8.85334 10.3412 7.47845 10.3414 6.62226 9.52248C5.74721 8.68555 5.74737 7.31423 6.62237 6.47736Z" fill="currentColor"/>
</svg>
