<svg xmlns="http://www.w3.org/2000/svg" width="32" height="32" fill="none" viewBox="0 0 32 32">
  <path fill="#10110D" d="M5.997 12.618c-.674-1.116-1.069-2.456-1.069-4.053C4.928 2.727 11.022 0 16.22 0c5.667 0 10.567 2.6 11.76 7.82h-4.687c-.98-2.664-4.346-3.772-7.286-3.772-2.258 0-6.136 1.065-6.136 4.304 0 2.33 1.7 3.635 4.004 4.266H5.997ZM22.839 20.546c.529.67.838 1.491.838 2.506 0 2.983-2.813 4.9-6.818 4.9-4.346 0-7.201-2.173-8.096-5.391H3.991C4.715 28.037 9.53 32 16.689 32c6.008 0 11.888-3.196 11.888-9.332a9.03 9.03 0 0 0-.24-2.122H22.84ZM3 14.6h26.755v3.964H3V14.6Z"/>
</svg>