<svg width="16" height="16" viewBox="0 0 16 16" fill="none" xmlns="http://www.w3.org/2000/svg">
<path fill-rule="evenodd" clip-rule="evenodd" d="M0.00157917 1.49766C-0.0375497 0.655723 0.655721 -0.0375498 1.49766 0.00157917L6.91681 0.253433C7.27302 0.269988 7.61022 0.418923 7.86237 0.671073L15.5802 8.38893C16.1391 8.94782 16.1391 9.85395 15.5803 10.4129L10.4129 15.5808C9.85403 16.1398 8.94778 16.1398 8.38885 15.5808L0.671034 7.86235C0.418908 7.6102 0.269988 7.27302 0.253434 6.91683L0.00157917 1.49766ZM6.35202 4.86912C6.35202 5.6881 5.6881 6.35201 4.86912 6.35201C4.05014 6.35201 3.38623 5.6881 3.38623 4.86912C3.38623 4.05014 4.05014 3.38623 4.86912 3.38623C5.6881 3.38623 6.35202 4.05014 6.35202 4.86912Z" fill="currentColor"/>
</svg>
