<svg width="16" height="16" viewBox="0 0 16 16" fill="none" xmlns="http://www.w3.org/2000/svg">
<path fill-rule="evenodd" clip-rule="evenodd" d="M0.00157917 1.49766C-0.0375497 0.655723 0.655721 -0.0375498 1.49766 0.00157917L6.91682 0.253433C7.27302 0.269988 7.61022 0.418923 7.86237 0.671073L15.5802 8.38893C16.1391 8.94782 16.1391 9.85395 15.5803 10.4129L10.413 15.5808C9.85403 16.1398 8.94778 16.1398 8.38886 15.5808L0.671034 7.86235C0.418908 7.6102 0.269988 7.27302 0.253434 6.91683L0.00157917 1.49766ZM1.50347 1.50347L1.75058 6.82057L9.4009 14.4715L14.4709 9.40093L6.82056 1.75058L1.50347 1.50347ZM4.86916 4.13628C4.46439 4.13628 4.13626 4.46441 4.13626 4.86918C4.13626 5.27394 4.46439 5.60207 4.86916 5.60207C5.27392 5.60207 5.60205 5.27394 5.60205 4.86918C5.60205 4.46441 5.27392 4.13628 4.86916 4.13628ZM2.63626 4.86918C2.63626 3.63598 3.63596 2.63628 4.86916 2.63628C6.10235 2.63628 7.10205 3.63598 7.10205 4.86918C7.10205 6.10237 6.10235 7.10207 4.86916 7.10207C3.63596 7.10207 2.63626 6.10237 2.63626 4.86918Z" fill="currentColor"/>
</svg>
