<svg width="16" height="16" viewBox="0 0 16 16" fill="none" xmlns="http://www.w3.org/2000/svg">
<path fill-rule="evenodd" clip-rule="evenodd" d="M8.00001 1.5C6.12618 1.5 4.60715 3.01903 4.60715 4.89286C4.60715 6.76668 6.12618 8.28572 8.00001 8.28572C9.87383 8.28572 11.3929 6.76668 11.3929 4.89286C11.3929 3.01903 9.87383 1.5 8.00001 1.5ZM11.0301 8.73481C12.1647 7.83876 12.8929 6.45085 12.8929 4.89286C12.8929 2.19061 10.7023 0 8.00001 0C5.29776 0 3.10715 2.19061 3.10715 4.89286C3.10715 6.4509 3.83539 7.83886 4.97005 8.73491C2.45623 9.52559 0.500579 11.3512 0.0811315 14.1413C-0.0807331 15.218 0.820538 16 1.74999 16H14.25C15.1795 16 16.0807 15.218 15.9189 14.1413C15.4995 11.3511 13.5442 9.52544 11.0301 8.73481ZM8.00001 9.78572C4.59946 9.78572 1.99323 11.5122 1.56446 14.3643C1.56176 14.3823 1.56391 14.393 1.56646 14.4006C1.56947 14.4096 1.57619 14.4228 1.59068 14.438C1.62139 14.4701 1.67746 14.5 1.74999 14.5H14.25C14.3225 14.5 14.3786 14.4701 14.4093 14.438C14.4238 14.4228 14.4305 14.4096 14.4335 14.4006C14.4361 14.393 14.4382 14.3823 14.4355 14.3643C14.0069 11.5122 11.4015 9.78572 8.00001 9.78572Z" fill="currentColor"/>
</svg>