<svg xmlns="http://www.w3.org/2000/svg" width="40" height="24" fill="none" viewBox="0 0 40 24">
  <path fill="#10110D" d="M9.169 0 0 23.578h4.958l1.732-4.77h9.576l1.732 4.77h5.263L14.06 0h-4.89ZM8.082 15.01l3.396-9.33 3.396 9.33H8.082ZM29.405 24c2.75 0 4.686-.779 5.977-2.596.068.843.17 1.622.305 2.174H40c-.34-1.46-.543-3.018-.543-5.777 0-1.59.068-3.894.068-4.446 0-5.907-3.532-7.692-7.879-7.692-4.686 0-7.674 2.532-8.014 5.972h4.38C28.116 9.72 29.61 8.81 31.41 8.81c1.901 0 3.43.941 3.43 3.635v.292c-7.166.78-12.022 2.012-12.022 6.134 0 3.18 3.09 5.128 6.588 5.128Zm5.57-8.406v1.298c0 2.532-1.257 4.057-4.178 4.057-2.105 0-3.158-1.038-3.158-2.304 0-1.947 2.106-2.532 7.335-3.05Z"/>
  <path fill="#10110D" d="M29.405 24c2.75 0 4.686-.779 5.977-2.596.068.843.17 1.622.305 2.174H40c-.34-1.46-.543-3.018-.543-5.777 0-1.59.068-3.894.068-4.446 0-5.907-3.532-7.692-7.879-7.692-4.686 0-7.674 2.532-8.014 5.972h4.38C28.116 9.72 29.61 8.81 31.41 8.81c1.901 0 3.43.941 3.43 3.635v.292c-7.166.78-12.022 2.012-12.022 6.134 0 3.18 3.09 5.128 6.588 5.128Zm5.57-8.406v1.298c0 2.532-1.257 4.057-4.178 4.057-2.105 0-3.158-1.038-3.158-2.304 0-1.947 2.106-2.532 7.335-3.05Z"/>
</svg>