<svg width="16" height="16" viewBox="0 0 16 16" fill="none" xmlns="http://www.w3.org/2000/svg">
<path fill-rule="evenodd" clip-rule="evenodd" d="M1.75 0C0.783501 0 0 0.783502 0 1.75V14.25C0 15.2165 0.783503 16 1.75 16H14.25C15.2165 16 16 15.2165 16 14.25V1.75C16 0.783502 15.2165 0 14.25 0H1.75ZM14.5 14.25C14.5 14.3881 14.3881 14.5 14.25 14.5H11.1667V6.81667H14.5V14.25ZM1.75 14.5C1.61193 14.5 1.5 14.3881 1.5 14.25V6.81667H4.83333V14.5H1.75ZM9.66667 6.81667V14.5H6.33333V6.81667H9.66667Z" fill="currentColor"/>
</svg>
