<svg width="32" height="32" viewBox="0 0 32 32" fill="none" xmlns="http://www.w3.org/2000/svg">
<path d="M23.5893 14.8314C23.4515 14.7653 23.3115 14.7017 23.1697 14.6409C22.9227 10.0897 20.4358 7.48417 16.2602 7.4575C16.2412 7.45738 16.2224 7.45738 16.2035 7.45738C13.7059 7.45738 11.6287 8.52348 10.3502 10.4635L12.6467 12.0388C13.6018 10.5897 15.1007 10.2808 16.2046 10.2808C16.2174 10.2808 16.2302 10.2808 16.2428 10.2809C17.6177 10.2897 18.6552 10.6894 19.3267 11.469C19.8153 12.0366 20.1422 12.8208 20.304 13.8106C19.085 13.6035 17.7667 13.5398 16.3573 13.6206C12.3873 13.8492 9.83502 16.1646 10.0064 19.382C10.0934 21.014 10.9065 22.418 12.2957 23.3352C13.4702 24.1105 14.983 24.4897 16.5552 24.4038C18.6315 24.29 20.2603 23.4978 21.3967 22.0493C22.2597 20.9493 22.8055 19.5238 23.0465 17.7277C24.036 18.3248 24.7693 19.1107 25.1743 20.0553C25.863 21.6612 25.9032 24.3 23.75 26.4513C21.8635 28.336 19.5958 29.1513 16.1688 29.1765C12.3672 29.1483 9.49214 27.9292 7.62285 25.5528C5.87242 23.3277 4.96779 20.1137 4.93404 16C4.96779 11.8863 5.87242 8.67227 7.62285 6.44712C9.49214 4.07082 12.3672 2.85167 16.1687 2.82342C19.9978 2.85188 22.923 4.0769 24.8638 6.46467C25.8155 7.6356 26.533 9.10813 27.006 10.8251L29.6972 10.107C29.1238 7.9937 28.2217 6.17262 26.994 4.66233C24.5058 1.60111 20.8668 0.0325247 16.1781 0H16.1593C11.4801 0.0324117 7.88185 1.60697 5.46455 4.67988C3.31349 7.4144 2.2039 11.2193 2.16662 15.9888L2.1665 16L2.16662 16.0112C2.2039 20.7807 3.31349 24.5857 5.46455 27.3202C7.88185 30.393 11.4801 31.9677 16.1593 32H16.1781C20.3382 31.9712 23.2705 30.882 25.6862 28.4685C28.8467 25.311 28.7515 21.3532 27.7098 18.9235C26.9625 17.1812 25.5377 15.766 23.5893 14.8314ZM16.4066 21.5845C14.6666 21.6825 12.8589 20.9015 12.7698 19.2287C12.7037 17.9883 13.6525 16.6043 16.5134 16.4395C16.841 16.4206 17.1625 16.4113 17.4783 16.4113C18.5175 16.4113 19.4897 16.5123 20.3735 16.7055C20.0438 20.8225 18.1102 21.491 16.4066 21.5845Z" fill="currentColor"/>
</svg>
