<svg width="32" height="32" viewBox="0 0 32 32" fill="none"
  xmlns="http://www.w3.org/2000/svg">
  <path d="M22.6344 17.193C22.5245 17.4158 22.3798 17.6172 22.206 17.7938L16.4552 23.6961C16.3553 23.8356 16.1837 23.9234 15.9953 23.9234C15.8068 23.9234 15.6341 23.8356 15.523 23.6815L9.78236 17.7927C9.75433 17.7657 9.72406 17.7331 9.69598 17.7005C9.09477 17.0243 8.97926 16.0477 9.40323 15.2151L15.4715 3.2869C15.5892 3.10351 15.7822 3 15.9953 3C16.2084 3 16.4002 3.10239 16.5124 3.27453L19.5537 9.25385L22.5951 15.2331C22.9148 15.8598 22.9294 16.5934 22.6344 17.193ZM16.1792 27.5326L1.02777 12.0795L0.979539 12.03C0.867372 11.94 0.738381 11.8939 0.599292 11.8939C0.396271 11.9017 0.217926 11.9906 0.108003 12.1369C0.00480992 12.2741 -0.025475 12.4519 0.0216349 12.6409L4.4309 27.8623C4.53634 28.2257 4.70683 28.5633 4.94124 28.8625C4.96931 28.9008 5.00069 28.9379 5.03102 28.9739C5.55482 29.5826 6.34445 29.9167 7.1633 29.9167C7.48072 29.9167 7.80265 29.8672 8.11447 29.7614C10.3847 29.0077 12.7615 28.5846 15.1843 28.507C15.3896 28.4912 15.5937 28.4789 15.7967 28.4688C15.965 28.4597 16.1209 28.3787 16.2218 28.2471C16.3217 28.1188 16.3598 27.9568 16.3295 27.8004C16.3105 27.7071 16.26 27.617 16.1804 27.5338L16.1792 27.5326ZM31.7232 11.9895C31.5315 11.8578 31.2869 11.8657 31.0312 12.0187L30.9684 12.057L17.9402 25.368C17.7237 25.5885 17.7226 25.935 17.938 26.1555L20.2082 28.4845C20.4775 28.7612 20.8229 28.9503 21.2099 29.0324C22.2396 29.2495 23.2614 29.5353 24.2485 29.8807C24.4773 29.9606 24.7162 30 24.9563 30C25.2535 30 25.5507 29.9392 25.8345 29.8177C26.3235 29.6174 26.7465 29.3013 27.0571 28.9019C27.2893 28.6037 27.4621 28.2662 27.5686 27.8994L31.979 12.6713C31.9969 12.6004 32.0037 12.5295 31.9981 12.4688C31.9981 12.2752 31.8949 12.0953 31.7232 11.9872V11.9895Z" fill="currentColor"/>
</svg>