<svg xmlns="http://www.w3.org/2000/svg" width="18" height="17" viewBox="0 0 18 17" fill="none">
  <path d="M8.8207 5.30005V3.7M11.4874 5.2941H7.58327C7.20418 5.2941 6.84061 5.4447 6.57255 5.71276C6.30448 5.98082 6.15389 6.34439 6.15389 6.72348C6.15165 7.00878 6.23613 7.28802 6.39615 7.52422C6.55616 7.76043 6.78415 7.94246 7.04992 8.04619L10.5914 8.93156C10.9042 9.05229 11.1646 9.27913 11.327 9.57243C11.4895 9.86572 11.5437 10.2068 11.4801 10.536C11.4166 10.8652 11.2393 11.1616 10.9794 11.3733C10.7194 11.5851 10.3933 11.6987 10.058 11.6943H6.15389M8.82067 13.2966V11.6965M9 16C13.1421 16 16.5 12.6421 16.5 8.5C16.5 4.35786 13.1421 1 9 1C4.85786 1 1.5 4.35786 1.5 8.5C1.5 12.6421 4.85786 16 9 16Z" stroke="#10110D" stroke-width="1.5" stroke-linejoin="round"/>
</svg>
