<svg width="32" height="25" viewBox="0 0 32 25" fill="none"
    xmlns="http://www.w3.org/2000/svg">
    <path d="M32 3.24167C30.8394 3.74583 29.8613 3.7625 28.8248 3.26389C30.1622 2.48333 30.2235 1.93472 30.7068 0.459722C29.455 1.18333 28.0677 1.70972 26.592 1.99306C25.4115 0.768055 23.7277 0 21.8642 0C18.2855 0 15.3855 2.82778 15.3855 6.31111C15.3855 6.80556 15.4425 7.2875 15.5523 7.75C10.1686 7.4875 5.39369 4.975 2.19854 1.15556C1.64106 2.0875 1.32169 3.17222 1.32169 4.32917C1.32169 6.51944 2.46658 8.45 4.20317 9.58194C3.14097 9.54861 2.14293 9.26528 1.27036 8.79306C1.26894 8.81944 1.26894 8.84444 1.26894 8.87222C1.26894 11.9306 3.50169 14.4806 6.4673 15.0611C5.51773 15.3125 4.51684 15.3514 3.54019 15.1708C4.36571 17.6764 6.75815 19.5014 9.59259 19.5528C6.81946 21.6694 3.38193 22.5514 0 22.1653C2.86865 23.9556 6.27197 25 9.93192 25C21.8485 25 28.3643 15.3833 28.3643 7.04306C28.3643 6.76806 28.36 6.49722 28.3472 6.22639C29.6118 5.3375 31.1317 4.50833 32 3.24167Z" fill="currentColor"/>
</svg>
