<svg width="28" height="28" viewBox="0 0 28 28" fill="none" xmlns="http://www.w3.org/2000/svg">
  <g clip-path="url(#clip0_94612_26392)">
    <path d="M24.4849 13L20.4849 17L16.4849 17L12.9849 20.5L12.9849 17L8.48486 17L8.48486 2L24.4849 2L24.4849 13Z" fill="none
"/>
    <path d="M7.48486 0L2.48486 5L2.48486 23L8.48486 23L8.48486 28L13.4849 23L17.4849 23L26.4849 14L26.4849 2.55341e-10L7.48486 0ZM24.4849 13L20.4849 17L16.4849 17L12.9849 20.5L12.9849 17L8.48486 17L8.48486 2L24.4849 2L24.4849 13Z" fill="#10110D"/>
    <path d="M21.4849 5.5L19.4849 5.5L19.4849 11.5L21.4849 11.5L21.4849 5.5Z" fill="#10110D"/>
    <path d="M15.9849 5.5L13.9849 5.5L13.9849 11.5L15.9849 11.5L15.9849 5.5Z" fill="#10110D"/>
  </g>
  <defs>
    <clipPath id="clip0_94612_26392">
      <rect width="28" height="28" fill="white"/>
    </clipPath>
  </defs>
</svg>
