<svg xmlns="http://www.w3.org/2000/svg" width="16" height="16" viewBox="0 0 16 16" fill="none">
<path fill-rule="evenodd" clip-rule="evenodd" d="M0 1.75C0 0.783501 0.783502 0 1.75 0H14.25C15.2165 0 16 0.783502 16 1.75V3.61667C16 4.58317 15.2165 5.36667 14.25 5.36667H10.9333C10.7953 5.36667 10.6833 5.4786 10.6833 5.61667V14.25C10.6833 15.2165 9.89983 16 8.93333 16H7.06667C6.10017 16 5.31667 15.2165 5.31667 14.25V5.61667C5.31667 5.4786 5.20474 5.36667 5.06667 5.36667H1.75C0.783502 5.36667 0 4.58317 0 3.61667V1.75ZM1.75 1.5C1.61193 1.5 1.5 1.61193 1.5 1.75V3.61667C1.5 3.75474 1.61193 3.86667 1.75 3.86667H5.06667C6.03317 3.86667 6.81667 4.65017 6.81667 5.61667V14.25C6.81667 14.3881 6.9286 14.5 7.06667 14.5H8.93333C9.0714 14.5 9.18333 14.3881 9.18333 14.25V5.61667C9.18333 4.65017 9.96684 3.86667 10.9333 3.86667H14.25C14.3881 3.86667 14.5 3.75474 14.5 3.61667V1.75C14.5 1.61193 14.3881 1.5 14.25 1.5H1.75Z" fill="currentColor"/>
</svg>
