<svg xmlns="http://www.w3.org/2000/svg" width="16" height="17" viewBox="0 0 16 17" fill="none">
    <path d="M1.19582 9.52148H3.883V2.36696H1.19582C1.04547 2.36696 0.901269 2.42669 0.794951 2.53301C0.688634 2.63932 0.628906 2.78352 0.628906 2.93387V8.95457C0.628906 9.10492 0.688634 9.24912 0.794951 9.35544C0.901269 9.46175 1.04547 9.52148 1.19582 9.52148Z" stroke="#6F6F69" stroke-linecap="round" stroke-linejoin="round"/>
    <path d="M3.88281 9.52109L6.76273 14.1244C6.87434 14.3064 7.03118 14.4563 7.21796 14.5597C7.40473 14.663 7.6151 14.7162 7.82854 14.714C7.99664 14.7201 8.16425 14.6924 8.32146 14.6326C8.47869 14.5728 8.62231 14.4821 8.74388 14.3658C8.86543 14.2495 8.96245 14.1101 9.02918 13.9556C9.09592 13.8012 9.13103 13.635 9.13244 13.4668V10.1674H14.11C14.2939 10.1614 14.4744 10.1166 14.6398 10.0358C14.8052 9.95509 14.9516 9.84026 15.0694 9.69889C15.1872 9.55752 15.2737 9.39282 15.3233 9.21561C15.3729 9.0384 15.3845 8.8527 15.3572 8.67072L14.4501 2.82014C14.4115 2.50754 14.2598 2.21973 14.0239 2.0109C13.788 1.80208 13.4839 1.68667 13.1688 1.68628H5.73095C5.37688 1.68493 5.02741 1.76639 4.7105 1.92452L3.89415 2.33262" stroke="#6F6F69" stroke-linecap="round" stroke-linejoin="round"/>
    <path d="M3.88281 9.52148V2.36707" stroke="#6F6F69" stroke-linecap="round" stroke-linejoin="round"/>
</svg>
