<svg xmlns="http://www.w3.org/2000/svg" width="16" height="16" viewBox="0 0 16 16" fill="none">
<path fill-rule="evenodd" clip-rule="evenodd" d="M1.75015 3.25012C1.61195 3.25011 1.5 3.36216 1.5 3.50014V12.5C1.5 12.638 1.61193 12.75 1.75009 12.75L9.7485 12.75C9.88666 12.75 9.99859 12.638 9.99859 12.5V3.50013C9.99859 3.36215 9.88666 3.25014 9.74851 3.25014C9.04805 3.25015 8.36404 3.25017 7.6881 3.25019C5.70968 3.25025 3.8004 3.2503 1.75015 3.25012ZM0 3.50014C0 2.53346 0.783817 1.75004 1.75028 1.75012C3.8005 1.7503 5.70972 1.75025 7.68818 1.75019C8.36407 1.75017 9.04805 1.75015 9.74849 1.75014C10.7149 1.75013 11.4986 2.53355 11.4986 3.50013V5.10953L13.5555 4.22017C14.7109 3.72059 16 4.56767 16 5.82645V10.2107C16 11.477 14.6967 12.3241 13.5394 11.8099L11.4986 10.9032V12.5C11.4986 13.4666 10.7149 14.25 9.7485 14.25L1.75008 14.25C0.783675 14.25 0 13.4666 0 12.5V3.50014ZM11.4986 9.26175L14.1485 10.4391C14.3138 10.5126 14.5 10.3916 14.5 10.2107V5.82645C14.5 5.64662 14.3158 5.52561 14.1508 5.59698L11.4986 6.74375V9.26175Z" fill="currentColor"/>
</svg>
