<svg xmlns="http://www.w3.org/2000/svg" width="46" height="32" fill="none" viewBox="0 0 46 32">
  <path fill="#fff" d="M.5.5h45v31H.5z"/>
  <path fill="#0742A6" fill-rule="evenodd" d="M20.322 21.834h-2.864l1.792-10.641h2.864l-1.792 10.641ZM30.706 11.453A7.312 7.312 0 0 0 28.137 11c-2.829 0-4.82 1.449-4.833 3.52-.023 1.529 1.426 2.378 2.51 2.888 1.109.52 1.485.86 1.485 1.324-.01.713-.895 1.042-1.72 1.042-1.143 0-1.756-.17-2.687-.566l-.377-.17-.401 2.389c.672.294 1.91.555 3.194.566 3.006 0 4.963-1.427 4.986-3.634.011-1.212-.754-2.14-2.405-2.898-1.001-.487-1.615-.816-1.615-1.314.012-.453.519-.917 1.65-.917a5.037 5.037 0 0 1 2.134.408l.259.113.39-2.298Z" clip-rule="evenodd"/>
  <path fill="#0742A6" d="M34.513 18.064c.236-.61 1.144-2.977 1.144-2.977-.012.023.235-.623.377-1.019l.2.917s.542 2.547.66 3.08h-2.38Zm3.536-6.871h-2.216c-.683 0-1.202.192-1.497.883l-4.255 9.758h3.006l.601-1.596h3.678c.082.373.342 1.596.342 1.596h2.652l-2.311-10.641Z"/>
  <path fill="#0742A6" fill-rule="evenodd" d="m15.066 11.193-2.806 7.256-.306-1.471c-.519-1.699-2.145-3.544-3.96-4.46l2.57 9.305h3.028l4.502-10.63h-3.028Z" clip-rule="evenodd"/>
  <path fill="#0742A6" fill-rule="evenodd" d="M9.656 11.193H5.047L5 11.408c3.595.883 5.976 3.012 6.954 5.57l-1.002-4.89c-.165-.68-.672-.873-1.296-.895Z" clip-rule="evenodd"/>
  <path stroke="#E3E2E1" d="M.5.5h45v31H.5z"/>
</svg>