<svg width="32" height="32" viewBox="0 0 32 32" fill="none" xmlns="http://www.w3.org/2000/svg">
<path d="M16.0008 0.473267L6.82181 9.9605C6.74338 10.0296 6.64422 10.0692 6.54082 10.0725H3.12211C2.29408 10.0725 1.49995 10.4096 0.914445 11.0097C0.328936 11.6097 0 12.4236 0 13.2722V18.7438C0 19.5924 0.328936 20.4063 0.914445 21.0063C1.49995 21.6064 2.29408 21.9435 3.12211 21.9435H6.54082C6.59267 21.9412 6.64442 21.95 6.69279 21.9693C6.74116 21.9886 6.7851 22.0179 6.82181 22.0555L16.0008 31.5267C16.2182 31.7514 16.4958 31.9049 16.7983 31.968C17.1009 32.031 17.4148 32.0006 17.7006 31.8807C17.9863 31.7609 18.2309 31.5569 18.4035 31.2945C18.5761 31.0322 18.6689 30.7232 18.6702 30.4068V1.60917C18.672 1.2914 18.5814 0.980276 18.41 0.715466C18.2386 0.450656 17.9942 0.244159 17.7078 0.122302C17.4214 0.000444949 17.1061 -0.0312509 16.8021 0.0312555C16.4981 0.0937619 16.2192 0.247638 16.0008 0.473267Z" fill="#10110D"/>
<path d="M27.4595 4.80918C27.3144 4.65922 27.1418 4.5402 26.9515 4.45898C26.7613 4.37775 26.5573 4.33594 26.3512 4.33594C26.1451 4.33594 25.9411 4.37775 25.7509 4.45898C25.5606 4.5402 25.388 4.65922 25.2428 4.80918C24.9521 5.10893 24.7889 5.51442 24.7889 5.93708C24.7889 6.35975 24.9521 6.76524 25.2428 7.06499C26.3964 8.2449 27.3116 9.64638 27.936 11.1892C28.5605 12.7321 28.8819 14.386 28.8819 16.0563C28.8819 17.7266 28.5605 19.3805 27.936 20.9233C27.3116 22.4661 26.3964 23.8676 25.2428 25.0475C24.9521 25.3473 24.7889 25.7528 24.7889 26.1754C24.7889 26.5981 24.9521 27.0036 25.2428 27.3033C25.388 27.4533 25.5606 27.5723 25.7509 27.6535C25.9411 27.7348 26.1451 27.7766 26.3512 27.7766C26.5573 27.7766 26.7613 27.7348 26.9515 27.6535C27.1418 27.5723 27.3144 27.4533 27.4595 27.3033C30.367 24.3188 32 20.2737 32 16.0563C32 11.8388 30.367 7.79377 27.4595 4.80918Z" fill="#10110D"/>
<path d="M23.6345 8.8088C23.49 8.65963 23.3182 8.54109 23.129 8.45996C22.9398 8.37883 22.7368 8.33669 22.5317 8.33595C22.3266 8.3352 22.1233 8.37587 21.9335 8.45563C21.7438 8.53539 21.5712 8.65268 21.4256 8.8008C21.2801 8.94892 21.1644 9.12497 21.0852 9.3189C21.0061 9.51282 20.965 9.72084 20.9642 9.93105C20.9635 10.1413 21.0032 10.3496 21.081 10.5441C21.1588 10.7386 21.2733 10.9154 21.4178 11.0646C22.6933 12.3778 23.4093 14.1553 23.4093 16.0082C23.4093 17.8611 22.6933 19.6386 21.4178 20.9518C21.1271 21.2516 20.9639 21.6571 20.9639 22.0797C20.9639 22.5024 21.1271 22.9079 21.4178 23.2076C21.5629 23.3576 21.7356 23.4766 21.9258 23.5578C22.116 23.639 22.3201 23.6809 22.5262 23.6809C22.7322 23.6809 22.9363 23.639 23.1265 23.5578C23.3167 23.4766 23.4894 23.3576 23.6345 23.2076C25.4953 21.297 26.5404 18.7077 26.5404 16.0082C26.5404 13.3087 25.4953 10.7195 23.6345 8.8088Z" fill="#10110D"/>
</svg>
