<svg width="16" height="16" viewBox="0 0 16 16" fill="none" xmlns="http://www.w3.org/2000/svg">
<path fill-rule="evenodd" clip-rule="evenodd" d="M2.66177 7.72097L7.80226 13.6391C7.90193 13.7538 8.08008 13.7538 8.17974 13.6391L13.322 7.71896C15.1783 5.5097 14.5712 3.33288 13.3529 2.34957C12.7325 1.84883 11.9448 1.63795 11.1488 1.83551C10.3531 2.03301 9.43727 2.66854 8.64484 4.07874C8.51197 4.3152 8.26177 4.46149 7.99052 4.46132C7.71928 4.46115 7.46927 4.31454 7.33669 4.0779C6.5433 2.66178 5.62929 2.02361 4.83733 1.82467C4.04611 1.6259 3.26397 1.83506 2.64674 2.33499C1.43278 3.31826 0.825007 5.50201 2.66177 7.72097ZM7.99229 2.34552C7.1728 1.27409 6.21227 0.623457 5.20279 0.369867C3.90999 0.0451021 2.64995 0.40208 1.70263 1.16938C-0.211347 2.71963 -0.822172 5.87152 1.5127 8.68518L1.52364 8.69806L6.66981 14.6227C7.36749 15.4259 8.61451 15.4259 9.31219 14.6227L14.4584 8.69806L14.4584 8.69812L14.4659 8.6892C16.8275 5.88351 16.216 2.73284 14.295 1.18233C13.3453 0.415841 12.0824 0.0582947 10.7875 0.379675C9.77607 0.630701 8.81312 1.27774 7.99229 2.34552Z" fill="currentColor"/>
</svg>